savate-regular.ufo
<glyph name="ampersand" format="1">
  <advance width="730"/>
  <unicode hex="0026"/>
  <outline>
    <contour>
      <point x="271" y="367" type="move" smooth="yes"/>
      <point x="129" y="365"/>
      <point x="60" y="280"/>
      <point x="60" y="174" type="curve"/>
      <point x="60" y="68"/>
      <point x="135" y="-10"/>
      <point x="264" y="-10" type="curve" smooth="yes"/>
      <point x="322" y="-10"/>
      <point x="394" y="6"/>
      <point x="422" y="49" type="curve"/>
      <point x="396" y="161" type="line"/>
      <point x="375" y="128"/>
      <point x="331" y="115"/>
      <point x="274" y="115" type="curve" smooth="yes"/>
      <point x="194" y="115"/>
      <point x="151" y="158"/>
      <point x="151" y="222" type="curve"/>
      <point x="151" y="274"/>
      <point x="205" y="326"/>
      <point x="267" y="319" type="curve"/>
      <point x="267" y="319"/>
    </contour>
    <contour>
      <point x="389" y="530" type="move"/>
      <point x="389" y="153" type="line" smooth="yes"/>
      <point x="389" y="17"/>
      <point x="448" y="-11"/>
      <point x="532" y="-10" type="curve" smooth="yes"/>
      <point x="602" y="-9"/>
      <point x="651" y="24"/>
      <point x="665" y="52" type="curve"/>
      <point x="636" y="146" type="line"/>
      <point x="619" y="123"/>
      <point x="584" y="115"/>
      <point x="533" y="115" type="curve" smooth="yes"/>
      <point x="481" y="116"/>
      <point x="451" y="136"/>
      <point x="451" y="206" type="curve" smooth="yes"/>
      <point x="451" y="530" type="line"/>
    </contour>
    <contour>
      <point x="554" y="455" type="line"/>
      <point x="266" y="455" type="line"/>
      <point x="196" y="455"/>
      <point x="152" y="482"/>
      <point x="154" y="526" type="curve"/>
      <point x="155" y="579"/>
      <point x="204" y="599"/>
      <point x="293" y="599" type="curve" smooth="yes"/>
      <point x="322" y="599"/>
      <point x="360" y="590"/>
      <point x="379" y="577" type="curve"/>
      <point x="398" y="724" type="line"/>
      <point x="378" y="734"/>
      <point x="342" y="742"/>
      <point x="313" y="742" type="curve" smooth="yes"/>
      <point x="193" y="742"/>
      <point x="103" y="672"/>
      <point x="103" y="531" type="curve"/>
      <point x="103" y="387"/>
      <point x="163" y="310"/>
      <point x="346" y="310" type="curve"/>
      <point x="554" y="310" type="line"/>
    </contour>
  </outline>
</glyph>
<glyph name="quotesingle" format="1">
  <advance width="180"/>
  <unicode hex="0027"/>
  <outline>
    <contour>
      <point x="55" y="497" type="line"/>
      <point x="25" y="780" type="line"/>
      <point x="155" y="780" type="line"/>
      <point x="113" y="497" type="line"/>
    </contour>
  </outline>
</glyph>
<glyph name="asterisk" format="1">
  <advance width="430"/>
  <unicode hex="002A"/>
  <outline>
    <contour>
      <point x="254" y="475" type="line" smooth="yes"/>
      <point x="337" y="534" type="line"/>
      <point x="238" y="610" type="line"/>
      <point x="360" y="610" type="line"/>
      <point x="331" y="703" type="line"/>
      <point x="234" y="639" type="line"/>
      <point x="264" y="752" type="line"/>
      <point x="158" y="752" type="line"/>
      <point x="197" y="639" type="line"/>
      <point x="99" y="703" type="line"/>
      <point x="70" y="610" type="line"/>
      <point x="191" y="610" type="line"/>
      <point x="93" y="534" type="line"/>
      <point x="173" y="475" type="line"/>
      <point x="215" y="586" type="line"/>
    </contour>
  </outline>
</glyph>
<glyph name="plus" format="1">
  <advance width="530"/>
  <unicode hex="002B"/>
  <outline>
    <contour>
      <point x="301" y="550" type="line"/>
      <point x="223" y="550" type="line"/>
      <point x="223" y="80" type="line"/>
      <point x="301" y="80" type="line"/>
    </contour>
    <contour>
      <point x="460" y="266" type="line"/>
      <point x="460" y="377" type="line"/>
      <point x="70" y="377" type="line"/>
      <point x="70" y="266" type="line"/>
    </contour>
  </outline>
</glyph>
<glyph name="zero" format="1">
  <advance width="630"/>
  <unicode hex="0030"/>
  <outline>
    <contour>
      <point x="315" y="130" type="curve"/>
      <point x="196" y="130"/>
      <point x="96" y="173"/>
      <point x="97" y="341" type="curve" smooth="yes"/>
      <point x="98" y="466"/>
      <point x="171" y="544"/>
      <point x="315" y="544" type="curve"/>
      <point x="459" y="544"/>
      <point x="532" y="466"/>
      <point x="534" y="341" type="curve" smooth="yes"/>
      <point x="535" y="173"/>
      <point x="435" y="130"/>
    </contour>
    <contour>
      <point x="315" y="-10" type="curve"/>
      <point x="478" y="-10"/>
      <point x="595" y="89"/>
      <point x="595" y="341" type="curve" smooth="yes"/>
      <point x="595" y="635"/>
      <point x="481" y="738"/>
      <point x="315" y="738" type="curve"/>
      <point x="149" y="738"/>
      <point x="35" y="635"/>
      <point x="35" y="341" type="curve" smooth="yes"/>
      <point x="35" y="89"/>
      <point x="152" y="-10"/>
    </contour>
  </outline>
</glyph>
<glyph name="two" format="1">
  <advance width="630"/>
  <unicode hex="0032"/>
  <outline>
    <contour>
      <point x="580" y="0" type="line"/>
      <point x="580" y="141" type="line"/>
      <point x="282" y="141" type="line"/>
      <point x="386" y="226"/>
      <point x="545" y="350"/>
      <point x="545" y="527" type="curve" smooth="yes"/>
      <point x="545" y="660"/>
      <point x="461" y="740"/>
      <point x="303" y="740" type="curve" smooth="yes"/>
      <point x="199" y="740"/>
      <point x="115" y="690"/>
      <point x="78" y="633" type="curve"/>
      <point x="111" y="494" type="line"/>
      <point x="143" y="533"/>
      <point x="206" y="566"/>
      <point x="292" y="566" type="curve" smooth="yes"/>
      <point x="383" y="566"/>
      <point x="456" y="513"/>
      <point x="456" y="468" type="curve" smooth="yes"/>
      <point x="456" y="360"/>
      <point x="281" y="216"/>
      <point x="60" y="60" type="curve"/>
      <point x="60" y="0" type="line"/>
    </contour>
  </outline>
</glyph>
<glyph name="four" format="1">
  <advance width="630"/>
  <unicode hex="0034"/>
  <outline>
    <contour>
      <point x="572" y="181" type="line"/>
      <point x="572" y="258" type="line"/>
      <point x="77" y="258" type="line"/>
      <point x="77" y="181" type="line"/>
    </contour>
    <contour>
      <point x="495" y="0" type="line"/>
      <point x="495" y="730" type="line"/>
      <point x="424" y="730" type="line"/>
      <point x="424" y="0" type="line"/>
    </contour>
    <contour>
      <point x="325" y="730" type="line"/>
      <point x="77" y="258" type="line"/>
      <point x="214" y="258" type="line"/>
      <point x="426" y="619" type="line"/>
      <point x="465" y="619" type="line"/>
      <point x="465" y="730" type="line"/>
    </contour>
  </outline>
</glyph>
<glyph name="six" format="1">
  <advance width="630"/>
  <unicode hex="0036"/>
  <outline>
    <contour>
      <point x="318" y="118" type="curve" smooth="yes"/>
      <point x="203" y="118"/>
      <point x="135" y="164"/>
      <point x="133" y="227" type="curve" smooth="yes"/>
      <point x="131" y="290"/>
      <point x="179" y="338"/>
      <point x="318" y="338" type="curve" smooth="yes"/>
      <point x="451" y="338"/>
      <point x="497" y="299"/>
      <point x="497" y="227" type="curve" smooth="yes"/>
      <point x="497" y="172"/>
      <point x="442" y="118"/>
    </contour>
    <contour>
      <point x="318" y="-10" type="curve" smooth="yes"/>
      <point x="476" y="-10"/>
      <point x="560" y="93"/>
      <point x="560" y="226" type="curve" smooth="yes"/>
      <point x="560" y="384"/>
      <point x="468" y="470"/>
      <point x="324" y="470" type="curve" smooth="yes"/>
      <point x="218" y="470"/>
      <point x="147" y="432"/>
      <point x="115" y="361" type="curve"/>
      <point x="70" y="284" type="line"/>
      <point x="70" y="83"/>
      <point x="155" y="-10"/>
    </contour>
    <contour>
      <point x="130" y="376" type="move"/>
      <point x="132" y="530"/>
      <point x="207" y="585"/>
      <point x="318" y="585" type="curve" smooth="yes"/>
      <point x="380" y="585"/>
      <point x="433" y="575"/>
      <point x="483" y="545" type="curve"/>
      <point x="509" y="670" type="line"/>
      <point x="463" y="715"/>
      <point x="408" y="740"/>
      <point x="322" y="740" type="curve" smooth="yes"/>
      <point x="167" y="740"/>
      <point x="70" y="643"/>
      <point x="70" y="284" type="curve" smooth="yes"/>
    </contour>
  </outline>
</glyph>
<glyph name="seven" format="1">
  <advance width="530"/>
  <unicode hex="0037"/>
  <outline>
    <contour>
      <point x="218" y="0" type="line"/>
      <point x="218" y="199"/>
      <point x="341" y="408"/>
      <point x="493" y="584" type="curve"/>
      <point x="493" y="730" type="line"/>
      <point x="54" y="730" type="line"/>
      <point x="54" y="550" type="line"/>
      <point x="379" y="550" type="line"/>
      <point x="280" y="453"/>
      <point x="142" y="184"/>
      <point x="142" y="0" type="curve"/>
    </contour>
  </outline>
</glyph>
<glyph name="eight" format="1">
  <advance width="630"/>
  <unicode hex="0038"/>
  <outline>
    <contour>
      <point x="576" y="180" type="curve" smooth="yes"/>
      <point x="576" y="308"/>
      <point x="499" y="378"/>
      <point x="381" y="386" type="curve"/>
      <point x="362" y="337" type="line"/>
      <point x="448" y="345"/>
      <point x="512" y="295"/>
      <point x="508" y="220" type="curve"/>
      <point x="508" y="159"/>
      <point x="446" y="106"/>
      <point x="324" y="106" type="curve" smooth="yes"/>
      <point x="197" y="106"/>
      <point x="136" y="144"/>
      <point x="137" y="190" type="curve" smooth="yes"/>
      <point x="138" y="237"/>
      <point x="188" y="269"/>
      <point x="324" y="291" type="curve" smooth="yes"/>
      <point x="492" y="318"/>
      <point x="553" y="406"/>
      <point x="553" y="521" type="curve" smooth="yes"/>
      <point x="553" y="685"/>
      <point x="461" y="740"/>
      <point x="324" y="740" type="curve" smooth="yes"/>
      <point x="192" y="740"/>
      <point x="83" y="674"/>
      <point x="83" y="539" type="curve" smooth="yes"/>
      <point x="83" y="416"/>
      <point x="150" y="357"/>
      <point x="282" y="360" type="curve"/>
      <point x="301" y="397" type="line"/>
      <point x="201" y="397"/>
      <point x="147" y="439"/>
      <point x="147" y="484" type="curve" smooth="yes"/>
      <point x="147" y="524"/>
      <point x="211" y="576"/>
      <point x="324" y="576" type="curve" smooth="yes"/>
      <point x="436" y="576"/>
      <point x="495" y="549"/>
      <point x="494" y="501" type="curve" smooth="yes"/>
      <point x="493" y="446"/>
      <point x="425" y="432"/>
      <point x="324" y="420" type="curve" smooth="yes"/>
      <point x="148" y="400"/>
      <point x="74" y="334"/>
      <point x="74" y="208" type="curve" smooth="yes"/>
      <point x="74" y="74"/>
      <point x="170" y="-10"/>
      <point x="324" y="-10" type="curve" smooth="yes"/>
      <point x="490" y="-10"/>
      <point x="576" y="67"/>
    </contour>
  </outline>
</glyph>
<glyph name="nine" format="1">
  <advance width="630"/>
  <unicode hex="0039"/>
  <outline>
    <contour>
      <point x="312" y="578" type="curve" smooth="yes"/>
      <point x="437" y="578"/>
      <point x="496" y="544"/>
      <point x="497" y="473" type="curve" smooth="yes"/>
      <point x="498" y="408"/>
      <point x="451" y="359"/>
      <point x="312" y="359" type="curve" smooth="yes"/>
      <point x="179" y="359"/>
      <point x="133" y="399"/>
      <point x="133" y="473" type="curve" smooth="yes"/>
      <point x="133" y="530"/>
      <point x="178" y="578"/>
    </contour>
    <contour>
      <point x="312" y="740" type="curve" smooth="yes"/>
      <point x="158" y="740"/>
      <point x="70" y="643"/>
      <point x="70" y="504" type="curve" smooth="yes"/>
      <point x="70" y="340"/>
      <point x="162" y="250"/>
      <point x="306" y="250" type="curve" smooth="yes"/>
      <point x="412" y="250"/>
      <point x="481" y="293"/>
      <point x="515" y="369" type="curve"/>
      <point x="560" y="441" type="line"/>
      <point x="560" y="648"/>
      <point x="471" y="740"/>
    </contour>
    <contour>
      <point x="500" y="354" type="move"/>
      <point x="498" y="187"/>
      <point x="423" y="127"/>
      <point x="312" y="127" type="curve" smooth="yes"/>
      <point x="229" y="127"/>
      <point x="180" y="150"/>
      <point x="144" y="189" type="curve"/>
      <point x="120" y="70" type="line"/>
      <point x="156" y="18"/>
      <point x="223" y="-10"/>
      <point x="319" y="-10" type="curve" smooth="yes"/>
      <point x="467" y="-10"/>
      <point x="560" y="82"/>
      <point x="560" y="441" type="curve" smooth="yes"/>
    </contour>
  </outline>
</glyph>
<glyph name="equal" format="1">
  <advance width="530"/>
  <unicode hex="003D"/>
  <outline>
    <contour>
      <point x="460" y="386" type="line"/>
      <point x="460" y="495" type="line"/>
      <point x="70" y="495" type="line"/>
      <point x="70" y="386" type="line"/>
    </contour>
    <contour>
      <point x="460" y="168" type="line"/>
      <point x="460" y="277" type="line"/>
      <point x="70" y="277" type="line"/>
      <point x="70" y="168" type="line"/>
    </contour>
  </outline>
</glyph>
<glyph name="question" format="1">
  <advance width="530"/>
  <unicode hex="003F"/>
  <outline>
    <contour>
      <point x="319" y="309" type="curve" smooth="yes"/>
      <point x="424" y="323"/>
      <point x="488" y="385"/>
      <point x="488" y="517" type="curve" smooth="yes"/>
      <point x="488" y="657"/>
      <point x="405" y="738"/>
      <point x="269" y="738" type="curve" smooth="yes"/>
      <point x="144" y="738"/>
      <point x="69" y="682"/>
      <point x="42" y="571" type="curve"/>
      <point x="103" y="512" type="line"/>
      <point x="128" y="560"/>
      <point x="187" y="585"/>
      <point x="269" y="585" type="curve" smooth="yes"/>
      <point x="397" y="585"/>
      <point x="428" y="548"/>
      <point x="428" y="510" type="curve" smooth="yes"/>
      <point x="428" y="472"/>
      <point x="400" y="446"/>
      <point x="309" y="436" type="curve" smooth="yes"/>
      <point x="203" y="424"/>
      <point x="146" y="378"/>
      <point x="146" y="269" type="curve" smooth="yes"/>
      <point x="146" y="234"/>
      <point x="167" y="196"/>
      <point x="191" y="166" type="curve"/>
      <point x="241" y="174" type="line"/>
      <point x="229" y="197"/>
      <point x="218" y="225"/>
      <point x="218" y="244" type="curve" smooth="yes"/>
      <point x="218" y="292"/>
      <point x="275" y="303"/>
    </contour>
    <contour>
      <point x="311" y="46" type="curve" smooth="yes"/>
      <point x="311" y="96"/>
      <point x="286" y="116"/>
      <point x="244" y="116" type="curve" smooth="yes"/>
      <point x="197" y="116"/>
      <point x="173" y="95"/>
      <point x="173" y="46" type="curve" smooth="yes"/>
      <point x="173" y="8"/>
      <point x="198" y="-10"/>
      <point x="244" y="-10" type="curve" smooth="yes"/>
      <point x="285" y="-10"/>
      <point x="311" y="8"/>
    </contour>
  </outline>
</glyph>
<glyph name="A" format="1">
  <advance width="730"/>
  <unicode hex="0041"/>
  <outline>
    <contour>
      <point x="205" y="202" type="line"/>
      <point x="557" y="202" type="line"/>
      <point x="557" y="278" type="line"/>
      <point x="205" y="278" type="line"/>
    </contour>
    <contour>
      <point x="421" y="730" type="line"/>
      <point x="298" y="730" type="line"/>
      <point x="42" y="0" type="line"/>
      <point x="162" y="0" type="line"/>
      <point x="408" y="626" type="line"/>
      <point x="375" y="626" type="line"/>
      <point x="614" y="0" type="line"/>
      <point x="688" y="0" type="line"/>
    </contour>
  </outline>
</glyph>
<glyph name="C" format="1">
  <advance width="730"/>
  <unicode hex="0043"/>
  <outline>
    <contour>
      <point x="606" y="255" type="line"/>
      <point x="580" y="177"/>
      <point x="492" y="129"/>
      <point x="378" y="129" type="curve" smooth="yes"/>
      <point x="215" y="129"/>
      <point x="136" y="211"/>
      <point x="137" y="342" type="curve" smooth="yes"/>
      <point x="138" y="472"/>
      <point x="223" y="553"/>
      <point x="374" y="553" type="curve" smooth="yes"/>
      <point x="483" y="553"/>
      <point x="554" y="525"/>
      <point x="589" y="481" type="curve"/>
      <point x="657" y="538" type="line"/>
      <point x="618" y="692"/>
      <point x="516" y="739"/>
      <point x="374" y="740" type="curve" smooth="yes"/>
      <point x="200" y="741"/>
      <point x="75" y="631"/>
      <point x="75" y="354" type="curve" smooth="yes"/>
      <point x="75" y="108"/>
      <point x="192" y="-10"/>
      <point x="364" y="-10" type="curve" smooth="yes"/>
      <point x="532" y="-10"/>
      <point x="632" y="69"/>
      <point x="665" y="210" type="curve"/>
    </contour>
  </outline>
</glyph>
<glyph name="D" format="1">
  <advance width="780"/>
  <unicode hex="0044"/>
  <outline>
    <contour>
      <point x="140" y="0" type="line"/>
      <point x="387" y="0" type="line" smooth="yes"/>
      <point x="563" y="0"/>
      <point x="691" y="90"/>
      <point x="691" y="359" type="curve" smooth="yes"/>
      <point x="691" y="626"/>
      <point x="562" y="730"/>
      <point x="383" y="730" type="curve" smooth="yes"/>
      <point x="140" y="730" type="line"/>
    </contour>
    <contour>
      <point x="212" y="144" type="line"/>
      <point x="212" y="555" type="line"/>
      <point x="404" y="555" type="line" smooth="yes"/>
      <point x="541" y="555"/>
      <point x="630" y="466"/>
      <point x="630" y="346" type="curve" smooth="yes"/>
      <point x="630" y="225"/>
      <point x="526" y="144"/>
      <point x="421" y="144" type="curve" smooth="yes"/>
    </contour>
  </outline>
</glyph>
<glyph name="F" format="1">
  <advance width="630"/>
  <unicode hex="0046"/>
  <outline>
    <contour>
      <point x="130" y="0" type="line"/>
      <point x="202" y="0" type="line"/>
      <point x="202" y="268" type="line"/>
      <point x="482" y="268" type="line"/>
      <point x="482" y="396" type="line"/>
      <point x="202" y="396" type="line"/>
      <point x="202" y="547" type="line"/>
      <point x="560" y="547" type="line"/>
      <point x="560" y="730" type="line"/>
      <point x="130" y="730" type="line"/>
    </contour>
  </outline>
</glyph>
<glyph name="G" format="1">
  <advance width="780"/>
  <unicode hex="0047"/>
  <outline>
    <contour>
      <point x="685" y="329" type="curve"/>
      <point x="625" y="329" type="line"/>
      <point x="635" y="189"/>
      <point x="541" y="129"/>
      <point x="392" y="129" type="curve" smooth="yes"/>
      <point x="239" y="129"/>
      <point x="153" y="208"/>
      <point x="153" y="334" type="curve"/>
      <point x="154" y="460"/>
      <point x="227" y="563"/>
      <point x="392" y="563" type="curve" smooth="yes"/>
      <point x="491" y="563"/>
      <point x="563" y="539"/>
      <point x="607" y="485" type="curve"/>
      <point x="676" y="542" type="line"/>
      <point x="636" y="673"/>
      <point x="539" y="740"/>
      <point x="392" y="740" type="curve" smooth="yes"/>
      <point x="218" y="740"/>
      <point x="90" y="633"/>
      <point x="90" y="354" type="curve"/>
      <point x="90" y="107"/>
      <point x="210" y="-10"/>
      <point x="390" y="-10" type="curve" smooth="yes"/>
      <point x="575" y="-10"/>
      <point x="685" y="74"/>
    </contour>
    <contour>
      <point x="420" y="291" type="line"/>
      <point x="685" y="291" type="line"/>
      <point x="685" y="364" type="line"/>
      <point x="420" y="364" type="line"/>
    </contour>
    <contour>
      <point x="631" y="0" type="line"/>
      <point x="685" y="0" type="line"/>
      <point x="685" y="314" type="line"/>
      <point x="612" y="156" type="line"/>
    </contour>
  </outline>
</glyph>
<glyph name="I" format="1">
  <advance width="480"/>
  <unicode hex="0049"/>
  <outline>
    <contour>
      <point x="420" y="0" type="line"/>
      <point x="420" y="141" type="line"/>
      <point x="278" y="141" type="line"/>
      <point x="278" y="550" type="line"/>
      <point x="414" y="550" type="line"/>
      <point x="414" y="730" type="line"/>
      <point x="66" y="730" type="line"/>
      <point x="66" y="550" type="line"/>
      <point x="206" y="550" type="line"/>
      <point x="206" y="141" type="line"/>
      <point x="60" y="141" type="line"/>
      <point x="60" y="0" type="line"/>
    </contour>
  </outline>
</glyph>
<glyph name="J" format="1">
  <advance width="580"/>
  <unicode hex="004A"/>
  <outline>
    <contour>
      <point x="276" y="-10" type="curve" smooth="yes"/>
      <point x="412" y="-10"/>
      <point x="475" y="71"/>
      <point x="475" y="276" type="curve"/>
      <point x="475" y="730" type="line"/>
      <point x="194" y="730" type="line"/>
      <point x="194" y="555" type="line"/>
      <point x="405" y="555" type="line"/>
      <point x="405" y="306" type="line"/>
      <point x="405" y="183"/>
      <point x="354" y="129"/>
      <point x="272" y="129" type="curve" smooth="yes"/>
      <point x="221" y="129"/>
      <point x="164" y="144"/>
      <point x="126" y="172" type="curve"/>
      <point x="100" y="58" type="line"/>
      <point x="129" y="13"/>
      <point x="209" y="-10"/>
    </contour>
  </outline>
</glyph>
<glyph name="K" format="1">
  <advance width="630"/>
  <unicode hex="004B"/>
  <outline>
    <contour>
      <point x="90" y="0" type="line"/>
      <point x="161" y="0" type="line"/>
      <point x="161" y="732" type="line"/>
      <point x="90" y="732" type="line"/>
    </contour>
    <contour>
      <point x="241" y="382" type="line"/>
      <point x="514" y="0" type="line"/>
      <point x="603" y="0" type="line" smooth="yes"/>
      <point x="290" y="445" type="line"/>
    </contour>
    <contour>
      <point x="441" y="730" type="line"/>
      <point x="123" y="366" type="line"/>
      <point x="123" y="168" type="line"/>
      <point x="642" y="730" type="line"/>
    </contour>
  </outline>
</glyph>
<glyph name="L" format="1">
  <advance width="530"/>
  <unicode hex="004C"/>
  <outline>
    <contour>
      <point x="455" y="0" type="line"/>
      <point x="455" y="145" type="line"/>
      <point x="153" y="145" type="line"/>
      <point x="153" y="730" type="line"/>
      <point x="85" y="730" type="line"/>
      <point x="85" y="0" type="line"/>
    </contour>
  </outline>
</glyph>
<glyph name="M" format="1">
  <advance width="880"/>
  <unicode hex="004D"/>
  <outline>
    <contour>
      <point x="389" y="0" type="line"/>
      <point x="509" y="0" type="line"/>
      <point x="739" y="640" type="line"/>
      <point x="720" y="640" type="line"/>
      <point x="720" y="0" type="line"/>
      <point x="790" y="0" type="line"/>
      <point x="790" y="730" type="line"/>
      <point x="638" y="730" type="line"/>
      <point x="445" y="119" type="line"/>
      <point x="255" y="730" type="line"/>
      <point x="90" y="730" type="line"/>
      <point x="90" y="0" type="line"/>
      <point x="165" y="0" type="line"/>
      <point x="165" y="640" type="line"/>
      <point x="147" y="639" type="line"/>
    </contour>
  </outline>
</glyph>
<glyph name="N" format="1">
  <advance width="780"/>
  <unicode hex="004E"/>
  <outline>
    <contour>
      <point x="529" y="0" type="line"/>
      <point x="675" y="0" type="line"/>
      <point x="675" y="730" type="line"/>
      <point x="603" y="730" type="line"/>
      <point x="603" y="45" type="line"/>
      <point x="615" y="83" type="line"/>
      <point x="271" y="730" type="line"/>
      <point x="105" y="730" type="line"/>
      <point x="105" y="0" type="line"/>
      <point x="177" y="0" type="line"/>
      <point x="177" y="630" type="line"/>
      <point x="167" y="607" type="line"/>
    </contour>
  </outline>
</glyph>
<glyph name="P" format="1">
  <advance width="680"/>
  <unicode hex="0050"/>
  <outline>
    <contour>
      <point x="324" y="190" type="line"/>
      <point x="506" y="190"/>
      <point x="600" y="270"/>
      <point x="600" y="450" type="curve" smooth="yes"/>
      <point x="600" y="653"/>
      <point x="502" y="730"/>
      <point x="325" y="730" type="curve"/>
      <point x="105" y="730" type="line"/>
      <point x="105" y="0" type="line"/>
      <point x="176" y="0" type="line"/>
      <point x="176" y="190" type="line"/>
    </contour>
    <contour>
      <point x="364" y="338" type="curve"/>
      <point x="176" y="338" type="line"/>
      <point x="176" y="566" type="line"/>
      <point x="364" y="566" type="line"/>
      <point x="479" y="566"/>
      <point x="538" y="518"/>
      <point x="539" y="450" type="curve" smooth="yes"/>
      <point x="540" y="388"/>
      <point x="477" y="338"/>
    </contour>
  </outline>
</glyph>
<glyph name="S" format="1">
  <advance width="730"/>
  <unicode hex="0053"/>
  <outline>
    <contour>
      <point x="373" y="-10" type="curve" smooth="yes"/>
      <point x="553" y="-10"/>
      <point x="657" y="60"/>
      <point x="657" y="187" type="curve"/>
      <point x="658" y="304"/>
      <point x="583" y="383"/>
      <point x="376" y="400" type="curve" smooth="yes"/>
      <point x="222" y="413"/>
      <point x="194" y="445"/>
      <point x="194" y="490" type="curve"/>
      <point x="194" y="541"/>
      <point x="233" y="591"/>
      <point x="368" y="591" type="curve" smooth="yes"/>
      <point x="484" y="591"/>
      <point x="560" y="549"/>
      <point x="596" y="519" type="curve"/>
      <point x="628" y="650" type="line"/>
      <point x="594" y="705"/>
      <point x="500" y="760"/>
      <point x="366" y="760" type="curve" smooth="yes"/>
      <point x="200" y="760"/>
      <point x="105" y="667"/>
      <point x="105" y="547" type="curve"/>
      <point x="105" y="420"/>
      <point x="160" y="348"/>
      <point x="370" y="332" type="curve" smooth="yes"/>
      <point x="506" y="322"/>
      <point x="562" y="283"/>
      <point x="562" y="234" type="curve"/>
      <point x="562" y="179"/>
      <point x="509" y="137"/>
      <point x="373" y="137" type="curve" smooth="yes"/>
      <point x="266" y="137"/>
      <point x="147" y="192"/>
      <point x="118" y="261" type="curve"/>
      <point x="73" y="124" type="line"/>
      <point x="104" y="50"/>
      <point x="233" y="-10"/>
    </contour>
  </outline>
</glyph>
<glyph name="T" format="1">
  <advance width="580"/>
  <unicode hex="0054"/>
  <outline>
    <contour>
      <point x="35" y="550" type="line"/>
      <point x="256" y="550" type="line"/>
      <point x="256" y="0" type="line"/>
      <point x="327" y="0" type="line"/>
      <point x="327" y="550" type="line"/>
      <point x="545" y="550" type="line"/>
      <point x="545" y="730" type="line"/>
      <point x="35" y="730" type="line"/>
    </contour>
  </outline>
</glyph>
<glyph name="Y" format="1">
  <advance width="680"/>
  <unicode hex="0059"/>
  <outline>
    <contour>
      <point x="298" y="0" type="line"/>
      <point x="369" y="0" type="line"/>
      <point x="369" y="277" type="line"/>
      <point x="298" y="277" type="line"/>
    </contour>
    <contour>
      <point x="339" y="179" type="line"/>
      <point x="650" y="730" type="line"/>
      <point x="501" y="730" type="line"/>
      <point x="295" y="343" type="line"/>
      <point x="310" y="343" type="line"/>
      <point x="103" y="730" type="line"/>
      <point x="30" y="730" type="line"/>
    </contour>
  </outline>
</glyph>
<glyph name="Z" format="1">
  <advance width="730"/>
  <unicode hex="005A"/>
  <outline>
    <contour>
      <point x="70" y="0" type="line"/>
      <point x="640" y="0" type="line"/>
      <point x="640" y="141" type="line"/>
      <point x="221" y="141" type="line"/>
      <point x="224" y="120" type="line"/>
      <point x="660" y="699" type="line"/>
      <point x="660" y="730" type="line"/>
      <point x="103" y="730" type="line"/>
      <point x="103" y="545" type="line"/>
      <point x="493" y="545" type="line"/>
      <point x="488" y="584" type="line"/>
      <point x="70" y="41" type="line"/>
    </contour>
  </outline>
</glyph>
<glyph name="grave" format="1">
  <advance width="530"/>
  <unicode hex="0060"/>
  <outline>
    <contour>
      <point x="394" y="613" type="curve"/>
      <point x="406" y="635" type="line"/>
      <point x="371" y="739"/>
      <point x="233" y="802"/>
      <point x="125" y="780" type="curve"/>
      <point x="130" y="654" type="line"/>
      <point x="207" y="693"/>
      <point x="340" y="675"/>
    </contour>
  </outline>
</glyph>
<glyph name="a" format="1">
  <advance width="530"/>
  <unicode hex="0061"/>
  <outline>
    <contour>
      <point x="430" y="0" type="line"/>
      <point x="470" y="0" type="line"/>
      <point x="470" y="316" type="line" smooth="yes"/>
      <point x="470" y="501"/>
      <point x="409" y="560"/>
      <point x="273" y="560" type="curve" smooth="yes"/>
      <point x="198" y="560"/>
      <point x="135" y="537"/>
      <point x="97" y="492" type="curve"/>
      <point x="101" y="363" type="line"/>
      <point x="128" y="395"/>
      <point x="178" y="422"/>
      <point x="263" y="422" type="curve" smooth="yes"/>
      <point x="363" y="422"/>
      <point x="407" y="377"/>
      <point x="407" y="269" type="curve"/>
      <point x="407" y="61" type="line"/>
    </contour>
    <contour>
      <point x="436" y="257" type="line"/>
      <point x="409" y="311"/>
      <point x="309" y="327"/>
      <point x="247" y="327" type="curve" smooth="yes"/>
      <point x="123" y="327"/>
      <point x="47" y="265"/>
      <point x="47" y="155" type="curve" smooth="yes"/>
      <point x="47" y="58"/>
      <point x="115" y="-10"/>
      <point x="257" y="-10" type="curve" smooth="yes"/>
      <point x="370" y="-10"/>
      <point x="420" y="22"/>
      <point x="457" y="85" type="curve"/>
      <point x="430" y="170" type="line"/>
      <point x="407" y="119"/>
      <point x="339" y="95"/>
      <point x="258" y="95" type="curve" smooth="yes"/>
      <point x="182" y="95"/>
      <point x="125" y="132"/>
      <point x="125" y="173" type="curve" smooth="yes"/>
      <point x="125" y="223"/>
      <point x="172" y="256"/>
      <point x="265" y="256" type="curve" smooth="yes"/>
      <point x="332" y="256"/>
      <point x="383" y="235"/>
      <point x="430" y="191" type="curve"/>
    </contour>
  </outline>
</glyph>
<glyph name="d" format="1">
  <advance width="530"/>
  <unicode hex="0064"/>
  <outline>
    <contour>
      <point x="251" y="108" type="curve" smooth="yes"/>
      <point x="146" y="108"/>
      <point x="93" y="172"/>
      <point x="94" y="266" type="curve"/>
      <point x="94" y="340"/>
      <point x="147" y="398"/>
      <point x="249" y="398" type="curve" smooth="yes"/>
      <point x="365" y="398"/>
      <point x="408" y="340"/>
      <point x="409" y="266" type="curve"/>
      <point x="409" y="156" type="line"/>
      <point x="411" y="148"/>
      <point x="432" y="214"/>
      <point x="430" y="208" type="curve" smooth="yes"/>
      <point x="398" y="126"/>
      <point x="342" y="108"/>
    </contour>
    <contour>
      <point x="35" y="266" type="curve" smooth="yes"/>
      <point x="35" y="91"/>
      <point x="113" y="-10"/>
      <point x="247" y="-10" type="curve" smooth="yes"/>
      <point x="339" y="-10"/>
      <point x="411" y="55"/>
      <point x="430" y="130" type="curve"/>
      <point x="409" y="125" type="line"/>
      <point x="419" y="0" type="line"/>
      <point x="474" y="0" type="line"/>
      <point x="474" y="780" type="line"/>
      <point x="409" y="780" type="line"/>
      <point x="409" y="387" type="line"/>
      <point x="427" y="395" type="line"/>
      <point x="411" y="522"/>
      <point x="322" y="559"/>
      <point x="243" y="560" type="curve" smooth="yes"/>
      <point x="119" y="561"/>
      <point x="35" y="481"/>
    </contour>
  </outline>
</glyph>
<glyph name="f" format="1">
  <advance width="330"/>
  <unicode hex="0066"/>
  <outline>
    <contour>
      <point x="171.0" y="508.0" type="line"/>
      <point x="147.796993109" y="594.759069245"/>
      <point x="203.125" y="644.0"/>
      <point x="265.0" y="644.0" type="curve" smooth="yes"/>
      <point x="293.346153846" y="644.0"/>
      <point x="315.0" y="638.0"/>
      <point x="327.0" y="629.0" type="curve"/>
      <point x="335.0" y="758.0" type="line"/>
      <point x="312.292145745" y="775.927253359"/>
      <point x="284.0" y="790.0"/>
      <point x="246.0" y="790.0" type="curve" smooth="yes"/>
      <point x="147.0" y="790.0"/>
      <point x="75.0" y="706.0"/>
      <point x="103.0" y="508.0" type="curve"/>
    </contour>
    <contour>
      <point x="101.0" y="394.0" type="line"/>
      <point x="101.0" y="0.0" type="line"/>
      <point x="166.0" y="0.0" type="line"/>
      <point x="166.0" y="394.0" type="line"/>
    </contour>
    <contour>
      <point x="289.0" y="366.0" type="line"/>
      <point x="289.0" y="530.0" type="line"/>
      <point x="22.0" y="530.0" type="line"/>
      <point x="22.0" y="366.0" type="line"/>
    </contour>
  </outline>
</glyph>
<glyph name="g" format="1">
  <advance width="580"/>
  <unicode hex="0067"/>
  <outline>
    <contour>
      <point x="278" y="223" type="curve" smooth="yes"/>
      <point x="179" y="223"/>
      <point x="137" y="272"/>
      <point x="137" y="321" type="curve" smooth="yes"/>
      <point x="138" y="377"/>
      <point x="177" y="414"/>
      <point x="278" y="414" type="curve" smooth="yes"/>
      <point x="376" y="414"/>
      <point x="422" y="379"/>
      <point x="423" y="321" type="curve" smooth="yes"/>
      <point x="423" y="276"/>
      <point x="375" y="223"/>
    </contour>
    <contour>
      <point x="278" y="137" type="curve" smooth="yes"/>
      <point x="370" y="137"/>
      <point x="489" y="172"/>
      <point x="489" y="326" type="curve" smooth="yes"/>
      <point x="489" y="502"/>
      <point x="406" y="560"/>
      <point x="278" y="560" type="curve" smooth="yes"/>
      <point x="153" y="560"/>
      <point x="71" y="501"/>
      <point x="71" y="324" type="curve" smooth="yes"/>
      <point x="71" y="169"/>
      <point x="184" y="137"/>
    </contour>
    <contour>
      <point x="140" y="210" type="move"/>
      <point x="88" y="192"/>
      <point x="69" y="142"/>
      <point x="70" y="100" type="curve" smooth="yes"/>
      <point x="71" y="44"/>
      <point x="110" y="-17"/>
      <point x="190" y="-17" type="curve" smooth="yes"/>
      <point x="258" y="-17"/>
      <point x="318" y="-3"/>
      <point x="375" y="-3" type="curve" smooth="yes"/>
      <point x="413" y="-3"/>
      <point x="443" y="-23"/>
      <point x="443" y="-51" type="curve" smooth="yes"/>
      <point x="443" y="-86"/>
      <point x="402" y="-120"/>
      <point x="293" y="-120" type="curve" smooth="yes"/>
      <point x="194" y="-120"/>
      <point x="110" y="-86"/>
      <point x="75" y="-34" type="curve"/>
      <point x="50" y="-121" type="line"/>
      <point x="75" y="-190"/>
      <point x="177" y="-243"/>
      <point x="286" y="-243" type="curve"/>
      <point x="451" y="-243"/>
      <point x="525" y="-147"/>
      <point x="525" y="-61" type="curve" smooth="yes"/>
      <point x="525" y="23"/>
      <point x="481" y="79"/>
      <point x="385" y="78" type="curve" smooth="yes"/>
      <point x="314" y="77"/>
      <point x="258" y="60"/>
      <point x="197" y="60" type="curve" smooth="yes"/>
      <point x="169" y="60"/>
      <point x="149" y="76"/>
      <point x="148" y="110" type="curve" smooth="yes"/>
      <point x="147" y="140"/>
      <point x="178" y="158"/>
      <point x="207" y="161" type="curve" smooth="yes"/>
    </contour>
    <contour>
      <point x="435" y="458" type="curve"/>
      <point x="460" y="404" type="line"/>
      <point x="485" y="446"/>
      <point x="558" y="423"/>
      <point x="558" y="423" type="curve"/>
      <point x="594" y="550" type="line"/>
      <point x="511" y="560"/>
      <point x="452" y="537"/>
    </contour>
  </outline>
</glyph>
<glyph name="i" format="1">
  <advance width="330"/>
  <unicode hex="0069"/>
  <outline>
    <contour>
      <point x="180" y="0" type="line"/>
      <point x="245" y="0" type="line"/>
      <point x="245" y="530" type="line"/>
      <point x="55" y="530" type="line"/>
      <point x="55" y="366" type="line"/>
      <point x="180" y="366" type="line"/>
    </contour>
    <contour>
      <point x="250" y="709" type="curve" smooth="yes"/>
      <point x="250" y="767"/>
      <point x="218" y="790"/>
      <point x="164" y="790" type="curve" smooth="yes"/>
      <point x="104" y="790"/>
      <point x="74" y="766"/>
      <point x="74" y="709" type="curve" smooth="yes"/>
      <point x="74" y="652"/>
      <point x="106" y="625"/>
      <point x="164" y="625" type="curve" smooth="yes"/>
      <point x="216" y="625"/>
      <point x="250" y="652"/>
    </contour>
  </outline>
</glyph>
<glyph name="m" format="1">
  <advance width="830"/>
  <unicode hex="006D"/>
  <outline>
    <contour>
      <point x="775" y="0" type="line"/>
      <point x="775" y="303" type="line" smooth="yes"/>
      <point x="775" y="499"/>
      <point x="721" y="560"/>
      <point x="595" y="560" type="curve" smooth="yes"/>
      <point x="507" y="560"/>
      <point x="425" y="495"/>
      <point x="415" y="382" type="curve"/>
      <point x="438" y="257" type="line"/>
      <point x="458" y="351"/>
      <point x="513" y="388"/>
      <point x="590" y="388" type="curve" smooth="yes"/>
      <point x="677" y="388"/>
      <point x="712" y="342"/>
      <point x="712" y="241" type="curve" smooth="yes"/>
      <point x="712" y="0" type="line"/>
    </contour>
    <contour>
      <point x="446" y="0" type="line"/>
      <point x="446" y="303" type="line" smooth="yes"/>
      <point x="446" y="345"/>
      <point x="439" y="380"/>
      <point x="434" y="411" type="curve" smooth="yes"/>
      <point x="413" y="521"/>
      <point x="362" y="560"/>
      <point x="263" y="560" type="curve" smooth="yes"/>
      <point x="175" y="560"/>
      <point x="113" y="499"/>
      <point x="104" y="392" type="curve"/>
      <point x="120" y="387" type="line"/>
      <point x="120" y="550" type="line"/>
      <point x="55" y="550" type="line"/>
      <point x="55" y="0" type="line"/>
      <point x="120" y="0" type="line"/>
      <point x="120" y="332" type="line"/>
      <point x="109" y="252" type="line"/>
      <point x="125" y="344"/>
      <point x="184" y="388"/>
      <point x="255" y="388" type="curve" smooth="yes"/>
      <point x="351" y="388"/>
      <point x="383" y="346"/>
      <point x="383" y="241" type="curve" smooth="yes"/>
      <point x="383" y="0" type="line"/>
    </contour>
  </outline>
</glyph>
<glyph name="q" format="1">
  <advance width="530"/>
  <unicode hex="0071"/>
  <outline>
    <contour>
      <point x="248" y="108" type="curve" smooth="yes"/>
      <point x="149" y="108"/>
      <point x="98" y="167"/>
      <point x="99" y="260" type="curve"/>
      <point x="99" y="351"/>
      <point x="156" y="403"/>
      <point x="254" y="403" type="curve" smooth="yes"/>
      <point x="369" y="403"/>
      <point x="409" y="356"/>
      <point x="410" y="279" type="curve"/>
      <point x="410" y="155" type="line"/>
      <point x="424" y="223" type="line"/>
      <point x="397" y="136"/>
      <point x="328" y="108"/>
    </contour>
    <contour>
      <point x="39" y="263" type="curve" smooth="yes"/>
      <point x="39" y="74"/>
      <point x="130" y="-10"/>
      <point x="254" y="-10" type="curve" smooth="yes"/>
      <point x="347" y="-10"/>
      <point x="409" y="49"/>
      <point x="446" y="117" type="curve"/>
      <point x="410" y="167" type="line"/>
      <point x="410" y="-200" type="line"/>
      <point x="475" y="-200" type="line"/>
      <point x="475" y="550" type="line"/>
      <point x="410" y="550" type="line"/>
      <point x="410" y="388" type="line"/>
      <point x="428" y="394" type="line"/>
      <point x="416" y="513"/>
      <point x="325" y="560"/>
      <point x="248" y="560" type="curve" smooth="yes"/>
      <point x="110" y="560"/>
      <point x="39" y="463"/>
    </contour>
  </outline>
</glyph>
<glyph name="s" format="1">
  <advance width="530"/>
  <unicode hex="0073"/>
  <outline>
    <contour>
      <point x="265" y="560" type="curve" smooth="yes"/>
      <point x="146" y="560"/>
      <point x="80" y="511"/>
      <point x="80" y="406" type="curve" smooth="yes"/>
      <point x="80" y="288"/>
      <point x="136" y="249"/>
      <point x="266" y="236" type="curve" smooth="yes"/>
      <point x="351" y="227"/>
      <point x="387" y="209"/>
      <point x="387" y="182" type="curve" smooth="yes"/>
      <point x="387" y="148"/>
      <point x="350" y="118"/>
      <point x="260" y="118" type="curve" smooth="yes"/>
      <point x="170" y="118"/>
      <point x="119" y="153"/>
      <point x="88" y="193" type="curve"/>
      <point x="64" y="93" type="line"/>
      <point x="93" y="39"/>
      <point x="150" y="-10"/>
      <point x="268" y="-10" type="curve" smooth="yes"/>
      <point x="397" y="-10"/>
      <point x="467" y="39"/>
      <point x="467" y="139" type="curve"/>
      <point x="467" y="244"/>
      <point x="415" y="294"/>
      <point x="272" y="308" type="curve" smooth="yes"/>
      <point x="184" y="317"/>
      <point x="155" y="335"/>
      <point x="155" y="361" type="curve" smooth="yes"/>
      <point x="155" y="398"/>
      <point x="198" y="427"/>
      <point x="273" y="427" type="curve" smooth="yes"/>
      <point x="357" y="427"/>
      <point x="403" y="399"/>
      <point x="429" y="367" type="curve"/>
      <point x="448" y="472" type="line"/>
      <point x="416" y="528"/>
      <point x="354" y="560"/>
    </contour>
  </outline>
</glyph>
<glyph name="u" format="1">
  <advance width="530"/>
  <unicode hex="0075"/>
  <outline>
    <contour>
      <point x="55" y="550" type="line"/>
      <point x="55" y="227" type="line" smooth="yes"/>
      <point x="55" y="50"/>
      <point x="126" y="-10"/>
      <point x="237" y="-10" type="curve" smooth="yes"/>
      <point x="358" y="-10"/>
      <point x="426" y="75"/>
      <point x="425" y="159" type="curve"/>
      <point x="405" y="163" type="line"/>
      <point x="414" y="0" type="line"/>
      <point x="475" y="0" type="line"/>
      <point x="475" y="550" type="line"/>
      <point x="410" y="550" type="line"/>
      <point x="410" y="188" type="line"/>
      <point x="420" y="248" type="line"/>
      <point x="407" y="174"/>
      <point x="343" y="124"/>
      <point x="253" y="124" type="curve" smooth="yes"/>
      <point x="150" y="124"/>
      <point x="119" y="165"/>
      <point x="119" y="279" type="curve" smooth="yes"/>
      <point x="119" y="550" type="line"/>
    </contour>
  </outline>
</glyph>
<glyph name="y" format="1">
  <advance width="530"/>
  <unicode hex="0079"/>
  <outline>
    <contour>
      <point x="510" y="550" type="line"/>
      <point x="444" y="550" type="line"/>
      <point x="235" y="-7" type="line"/>
      <point x="214" y="-65"/>
      <point x="187" y="-80"/>
      <point x="142" y="-80" type="curve" smooth="yes"/>
      <point x="110" y="-80"/>
      <point x="70" y="-61"/>
      <point x="42" y="-27" type="curve"/>
      <point x="14" y="-123" type="line"/>
      <point x="18" y="-171"/>
      <point x="89" y="-210"/>
      <point x="142" y="-210" type="curve" smooth="yes"/>
      <point x="228" y="-210"/>
      <point x="253" y="-153"/>
      <point x="295" y="-39" type="curve" smooth="yes"/>
    </contour>
    <contour>
      <point x="324" y="111" type="line"/>
      <point x="306" y="163"/>
      <point x="154" y="550"/>
      <point x="154" y="550" type="curve"/>
      <point x="154" y="550"/>
      <point x="33" y="550"/>
      <point x="33" y="550" type="curve"/>
      <point x="33" y="550"/>
      <point x="229" y="96"/>
      <point x="265" y="-10" type="curve"/>
    </contour>
  </outline>
</glyph>
<glyph name="z" format="1">
  <advance width="530"/>
  <unicode hex="007A"/>
  <outline>
    <contour>
      <point x="80" y="393" type="line"/>
      <point x="325" y="393" type="line"/>
      <point x="491" y="550" type="line"/>
      <point x="80" y="550" type="line"/>
    </contour>
    <contour>
      <point x="38" y="0" type="line" smooth="yes"/>
      <point x="123" y="0" type="line"/>
      <point x="492" y="550" type="line"/>
      <point x="418" y="550" type="line"/>
    </contour>
    <contour>
      <point x="83" y="0" type="line"/>
      <point x="468" y="0" type="line"/>
      <point x="468" y="136" type="line"/>
      <point x="172" y="136" type="line"/>
    </contour>
  </outline>
</glyph>
<glyph name="braceleft" format="1">
  <advance width="330"/>
  <unicode hex="007B"/>
  <outline>
    <contour>
      <point x="89" y="143" type="curve"/>
      <point x="77" y="-75"/>
      <point x="152" y="-171"/>
      <point x="264" y="-210" type="curve"/>
      <point x="237" y="-9" type="line"/>
      <point x="167" y="7"/>
      <point x="134" y="70"/>
      <point x="148" y="183" type="curve" smooth="yes"/>
      <point x="153" y="223"/>
      <point x="136" y="264"/>
      <point x="74" y="278" type="curve"/>
      <point x="134" y="299"/>
      <point x="154" y="326"/>
      <point x="149" y="367" type="curve" smooth="yes"/>
      <point x="130" y="520"/>
      <point x="176" y="603"/>
      <point x="252" y="622" type="curve"/>
      <point x="271" y="810" type="line"/>
      <point x="156" y="768"/>
      <point x="77" y="671"/>
      <point x="89" y="407" type="curve"/>
      <point x="89" y="385"/>
      <point x="71" y="355"/>
      <point x="10" y="366" type="curve"/>
      <point x="10" y="194" type="line"/>
      <point x="68" y="204"/>
      <point x="89" y="169"/>
    </contour>
  </outline>
</glyph>
<glyph name="braceright" format="1">
  <advance width="330"/>
  <unicode hex="007D"/>
  <outline>
    <contour>
      <point x="292" y="143" type="curve"/>
      <point x="292" y="169"/>
      <point x="313" y="204"/>
      <point x="371" y="194" type="curve"/>
      <point x="371" y="366" type="line"/>
      <point x="310" y="355"/>
      <point x="292" y="385"/>
      <point x="292" y="407" type="curve"/>
      <point x="304" y="671"/>
      <point x="225" y="768"/>
      <point x="110" y="810" type="curve"/>
      <point x="129" y="622" type="line"/>
      <point x="205" y="603"/>
      <point x="251" y="520"/>
      <point x="232" y="367" type="curve" smooth="yes"/>
      <point x="227" y="326"/>
      <point x="247" y="299"/>
      <point x="307" y="278" type="curve"/>
      <point x="245" y="264"/>
      <point x="228" y="223"/>
      <point x="233" y="183" type="curve" smooth="yes"/>
      <point x="247" y="70"/>
      <point x="214" y="7"/>
      <point x="144" y="-9" type="curve"/>
      <point x="117" y="-210" type="line"/>
      <point x="229" y="-171"/>
      <point x="304" y="-75"/>
    </contour>
  </outline>
</glyph>
<glyph name="exclamdown" format="1">
  <advance width="330"/>
  <unicode hex="00A1"/>
  <outline>
    <contour>
      <point x="248" y="50"/>
      <point x="212" y="121"/>
      <point x="199" y="247" type="curve" smooth="yes"/>
      <point x="196" y="275"/>
      <point x="194" y="311"/>
      <point x="200" y="359" type="curve"/>
      <point x="126" y="359" type="line"/>
      <point x="132" y="312"/>
      <point x="130" y="274"/>
      <point x="127" y="247" type="curve" smooth="yes"/>
      <point x="114" y="122"/>
      <point x="82" y="52"/>
      <point x="82" y="-70" type="curve" smooth="yes"/>
      <point x="82" y="-132"/>
      <point x="96" y="-210"/>
      <point x="166" y="-210" type="curve"/>
      <point x="235" y="-210"/>
      <point x="248" y="-130"/>
      <point x="248" y="-70" type="curve" smooth="yes"/>
    </contour>
    <contour>
      <point x="233" y="499" type="curve" smooth="yes"/>
      <point x="233" y="537"/>
      <point x="207" y="555"/>
      <point x="166" y="555" type="curve" smooth="yes"/>
      <point x="120" y="555"/>
      <point x="95" y="537"/>
      <point x="95" y="499" type="curve" smooth="yes"/>
      <point x="95" y="457"/>
      <point x="119" y="439"/>
      <point x="166" y="439" type="curve" smooth="yes"/>
      <point x="208" y="439"/>
      <point x="233" y="456"/>
    </contour>
  </outline>
</glyph>
<glyph name="sterling" format="1">
  <advance width="630"/>
  <unicode hex="00A3"/>
  <outline>
    <contour>
      <point x="569" y="82" type="curve"/>
      <point x="553" y="184" type="line"/>
      <point x="527" y="153"/>
      <point x="483" y="134"/>
      <point x="417" y="135" type="curve"/>
      <point x="378" y="136"/>
      <point x="342" y="156"/>
      <point x="291" y="156" type="curve" smooth="yes"/>
      <point x="267" y="156"/>
      <point x="220" y="145"/>
      <point x="187" y="131" type="curve"/>
      <point x="252" y="166"/>
      <point x="299" y="241"/>
      <point x="299" y="307" type="curve" smooth="yes"/>
      <point x="299" y="406"/>
      <point x="187" y="392"/>
      <point x="187" y="483" type="curve" smooth="yes"/>
      <point x="187" y="524"/>
      <point x="230" y="566"/>
      <point x="329" y="566" type="curve" smooth="yes"/>
      <point x="400" y="566"/>
      <point x="486" y="534"/>
      <point x="522" y="496" type="curve"/>
      <point x="556" y="630" type="line"/>
      <point x="506" y="699"/>
      <point x="428" y="740"/>
      <point x="324" y="740" type="curve" smooth="yes"/>
      <point x="190" y="740"/>
      <point x="97" y="668"/>
      <point x="97" y="539" type="curve" smooth="yes"/>
      <point x="97" y="450"/>
      <point x="137" y="396"/>
      <point x="183" y="372" type="curve"/>
      <point x="201" y="288" type="line"/>
      <point x="201" y="242"/>
      <point x="169" y="175"/>
      <point x="67" y="102" type="curve"/>
      <point x="79" y="21" type="line"/>
      <point x="93" y="36"/>
      <point x="132" y="37"/>
      <point x="184" y="37" type="curve" smooth="yes"/>
      <point x="265" y="37"/>
      <point x="285" y="-10"/>
      <point x="393" y="-10" type="curve" smooth="yes"/>
      <point x="467" y="-9"/>
      <point x="546" y="24"/>
    </contour>
    <contour>
      <point x="440" y="288" type="line"/>
      <point x="440" y="379" type="line"/>
      <point x="62" y="379" type="line"/>
      <point x="62" y="288" type="line"/>
    </contour>
  </outline>
</glyph>
<glyph name="currency" format="1">
  <advance width="530"/>
  <unicode hex="00A4"/>
  <outline>
    <contour>
      <point x="267" y="185" type="curve"/>
      <point x="188" y="185"/>
      <point x="129" y="214"/>
      <point x="129" y="308" type="curve" smooth="yes"/>
      <point x="130" y="371"/>
      <point x="172" y="414"/>
      <point x="267" y="414" type="curve"/>
      <point x="362" y="414"/>
      <point x="404" y="371"/>
      <point x="405" y="308" type="curve" smooth="yes"/>
      <point x="406" y="214"/>
      <point x="346" y="185"/>
    </contour>
    <contour>
      <point x="267" y="101" type="curve"/>
      <point x="383" y="101"/>
      <point x="459" y="164"/>
      <point x="459" y="308" type="curve" smooth="yes"/>
      <point x="459" y="467"/>
      <point x="385" y="529"/>
      <point x="267" y="529" type="curve"/>
      <point x="149" y="529"/>
      <point x="75" y="467"/>
      <point x="75" y="308" type="curve" smooth="yes"/>
      <point x="75" y="164"/>
      <point x="152" y="101"/>
    </contour>
    <contour>
      <point x="184" y="477" type="line"/>
      <point x="113" y="560" type="line"/>
      <point x="55" y="506" type="line"/>
      <point x="124" y="425" type="line"/>
    </contour>
    <contour>
      <point x="401" y="419" type="line"/>
      <point x="475" y="506" type="line"/>
      <point x="417" y="560" type="line"/>
      <point x="342" y="472" type="line"/>
    </contour>
    <contour>
      <point x="418" y="67" type="line"/>
      <point x="475" y="122" type="line"/>
      <point x="409" y="197" type="line"/>
      <point x="346" y="149" type="line"/>
    </contour>
    <contour>
      <point x="112" y="67" type="line"/>
      <point x="185" y="151" type="line"/>
      <point x="124" y="202" type="line"/>
      <point x="55" y="122" type="line"/>
    </contour>
  </outline>
</glyph>
<glyph name="brokenbar" format="1">
  <advance width="330"/>
  <unicode hex="00A6"/>
  <outline>
    <contour>
      <point x="129" y="800" type="line"/>
      <point x="129" y="363" type="line"/>
      <point x="201" y="383" type="line"/>
      <point x="201" y="800" type="line"/>
    </contour>
    <contour>
      <point x="129" y="208" type="line"/>
      <point x="129" y="-200" type="line"/>
      <point x="201" y="-200" type="line"/>
      <point x="201" y="228" type="line"/>
    </contour>
  </outline>
</glyph>
<glyph name="section" format="1">
  <advance width="530"/>
  <unicode hex="00A7"/>
  <outline>
    <contour>
      <point x="267" y="789" type="curve" smooth="yes"/>
      <point x="133" y="789"/>
      <point x="79" y="717"/>
      <point x="79" y="635" type="curve" smooth="yes"/>
      <point x="79" y="506"/>
      <point x="122" y="455"/>
      <point x="266" y="440" type="curve" smooth="yes"/>
      <point x="366" y="429"/>
      <point x="386" y="418"/>
      <point x="386" y="377" type="curve"/>
      <point x="381" y="325"/>
      <point x="368" y="302"/>
      <point x="272" y="302" type="curve"/>
      <point x="382" y="264" type="line"/>
      <point x="424" y="284"/>
      <point x="468" y="310"/>
      <point x="468" y="379" type="curve"/>
      <point x="468" y="478"/>
      <point x="425" y="525"/>
      <point x="272" y="541" type="curve" smooth="yes"/>
      <point x="165" y="552"/>
      <point x="156" y="573"/>
      <point x="156" y="598" type="curve" smooth="yes"/>
      <point x="156" y="634"/>
      <point x="185" y="662"/>
      <point x="273" y="662" type="curve" smooth="yes"/>
      <point x="366" y="662"/>
      <point x="402" y="644"/>
      <point x="426" y="614" type="curve"/>
      <point x="446" y="705" type="line"/>
      <point x="415" y="760"/>
      <point x="364" y="789"/>
    </contour>
    <contour>
      <point x="79" y="391" type="curve"/>
      <point x="79" y="294"/>
      <point x="127" y="251"/>
      <point x="266" y="236" type="curve" smooth="yes"/>
      <point x="365" y="225"/>
      <point x="386" y="209"/>
      <point x="386" y="182" type="curve" smooth="yes"/>
      <point x="386" y="153"/>
      <point x="364" y="122"/>
      <point x="260" y="122" type="curve" smooth="yes"/>
      <point x="159" y="122"/>
      <point x="116" y="152"/>
      <point x="86" y="190" type="curve"/>
      <point x="62" y="93" type="line"/>
      <point x="92" y="38"/>
      <point x="137" y="-10"/>
      <point x="268" y="-10" type="curve" smooth="yes"/>
      <point x="411" y="-10"/>
      <point x="468" y="64"/>
      <point x="468" y="144" type="curve"/>
      <point x="468" y="247"/>
      <point x="430" y="321"/>
      <point x="272" y="336" type="curve" smooth="yes"/>
      <point x="164" y="346"/>
      <point x="156" y="361"/>
      <point x="156" y="401" type="curve"/>
      <point x="156" y="448"/>
      <point x="179" y="476"/>
      <point x="265" y="476" type="curve"/>
      <point x="167" y="515" type="line"/>
      <point x="111" y="495"/>
      <point x="79" y="457"/>
    </contour>
  </outline>
</glyph>
<glyph name="ordfeminine" format="1">
  <advance width="330"/>
  <unicode hex="00AA"/>
  <outline>
    <contour>
      <point x="274" y="367" type="line"/>
      <point x="302" y="367" type="line"/>
      <point x="302" y="575" type="line" smooth="yes"/>
      <point x="302" y="697"/>
      <point x="260" y="736"/>
      <point x="170" y="736" type="curve" smooth="yes"/>
      <point x="121" y="736"/>
      <point x="78" y="721"/>
      <point x="53" y="691" type="curve"/>
      <point x="56" y="606" type="line"/>
      <point x="73" y="627"/>
      <point x="107" y="645"/>
      <point x="163" y="645" type="curve" smooth="yes"/>
      <point x="229" y="645"/>
      <point x="259" y="615"/>
      <point x="259" y="544" type="curve"/>
      <point x="259" y="407" type="line"/>
    </contour>
    <contour>
      <point x="278" y="536" type="line"/>
      <point x="260" y="572"/>
      <point x="194" y="582"/>
      <point x="153" y="582" type="curve" smooth="yes"/>
      <point x="71" y="582"/>
      <point x="20" y="541"/>
      <point x="20" y="469" type="curve" smooth="yes"/>
      <point x="20" y="405"/>
      <point x="66" y="360"/>
      <point x="160" y="360" type="curve" smooth="yes"/>
      <point x="234" y="360"/>
      <point x="267" y="381"/>
      <point x="292" y="423" type="curve"/>
      <point x="274" y="479" type="line"/>
      <point x="259" y="445"/>
      <point x="214" y="431"/>
      <point x="160" y="431" type="curve" smooth="yes"/>
      <point x="110" y="431"/>
      <point x="71" y="454"/>
      <point x="71" y="481" type="curve" smooth="yes"/>
      <point x="71" y="514"/>
      <point x="103" y="533"/>
      <point x="165" y="533" type="curve" smooth="yes"/>
      <point x="209" y="533"/>
      <point x="243" y="522"/>
      <point x="274" y="493" type="curve"/>
    </contour>
  </outline>
</glyph>
<glyph name="registered" format="1">
  <advance width="330"/>
  <unicode hex="00AE"/>
  <outline>
    <contour>
      <point x="18" y="576" type="curve"/>
      <point x="19" y="466"/>
      <point x="87" y="417"/>
      <point x="165" y="417" type="curve" smooth="yes"/>
      <point x="250" y="417"/>
      <point x="311" y="467"/>
      <point x="312" y="577" type="curve"/>
      <point x="311" y="687"/>
      <point x="240" y="736"/>
      <point x="162" y="736" type="curve" smooth="yes"/>
      <point x="77" y="736"/>
      <point x="19" y="686"/>
    </contour>
    <contour>
      <point x="46" y="644"/>
      <point x="98" y="692"/>
      <point x="162" y="692" type="curve" smooth="yes"/>
      <point x="229" y="692"/>
      <point x="284" y="643"/>
      <point x="284" y="577" type="curve"/>
      <point x="281" y="483"/>
      <point x="229" y="461"/>
      <point x="165" y="461" type="curve" smooth="yes"/>
      <point x="98" y="461"/>
      <point x="49" y="495"/>
      <point x="46" y="576" type="curve"/>
    </contour>
    <contour>
      <point x="178" y="556" type="line"/>
      <point x="213" y="557"/>
      <point x="229" y="573"/>
      <point x="229" y="607" type="curve" smooth="yes"/>
      <point x="229" y="646"/>
      <point x="206" y="662"/>
      <point x="163" y="662" type="curve"/>
      <point x="101" y="662" type="line"/>
      <point x="101" y="487" type="line"/>
      <point x="121" y="487" type="line"/>
      <point x="121" y="556" type="line"/>
    </contour>
    <contour>
      <point x="173" y="579" type="curve"/>
      <point x="121" y="579" type="line"/>
      <point x="121" y="621" type="line"/>
      <point x="173" y="621" type="line"/>
      <point x="200" y="621"/>
      <point x="211" y="616"/>
      <point x="211" y="601" type="curve" smooth="yes"/>
      <point x="212" y="588"/>
      <point x="200" y="579"/>
    </contour>
    <contour>
      <point x="195" y="500"/>
      <point x="205" y="485"/>
      <point x="220" y="485" type="curve"/>
      <point x="227" y="485"/>
      <point x="238" y="488"/>
      <point x="241" y="497" type="curve"/>
      <point x="235" y="520" type="line"/>
      <point x="232" y="517"/>
      <point x="227" y="517"/>
      <point x="222" y="517" type="curve" smooth="yes"/>
      <point x="214" y="517"/>
      <point x="211" y="520"/>
      <point x="209" y="535" type="curve" smooth="yes"/>
      <point x="205" y="556"/>
      <point x="189" y="566"/>
      <point x="157" y="567" type="curve"/>
      <point x="117" y="567" type="line"/>
      <point x="117" y="544" type="line"/>
      <point x="164" y="544" type="line"/>
      <point x="178" y="544"/>
      <point x="189" y="539"/>
      <point x="191" y="527" type="curve" smooth="yes"/>
    </contour>
  </outline>
</glyph>
<glyph name="macron" format="1">
  <advance width="530"/>
  <unicode hex="00AF"/>
  <outline>
    <contour>
      <point x="439" y="651" type="line"/>
      <point x="439" y="750" type="line"/>
      <point x="91" y="750" type="line"/>
      <point x="91" y="651" type="line"/>
    </contour>
  </outline>
</glyph>
<glyph name="degree" format="1">
  <advance width="280"/>
  <unicode hex="00B0"/>
  <outline>
    <contour>
      <point x="260" y="625" type="curve"/>
      <point x="259" y="715"/>
      <point x="201" y="754"/>
      <point x="139" y="754" type="curve" smooth="yes"/>
      <point x="71" y="754"/>
      <point x="21" y="714"/>
      <point x="20" y="625" type="curve"/>
      <point x="21" y="535"/>
      <point x="79" y="496"/>
      <point x="141" y="496" type="curve" smooth="yes"/>
      <point x="209" y="496"/>
      <point x="259" y="536"/>
    </contour>
    <contour>
      <point x="218" y="625" type="curve"/>
      <point x="216" y="572"/>
      <point x="181" y="558"/>
      <point x="141" y="558" type="curve" smooth="yes"/>
      <point x="99" y="558"/>
      <point x="64" y="578"/>
      <point x="63" y="625" type="curve"/>
      <point x="64" y="670"/>
      <point x="99" y="682"/>
      <point x="139" y="682" type="curve" smooth="yes"/>
      <point x="181" y="682"/>
      <point x="216" y="665"/>
    </contour>
  </outline>
</glyph>
<glyph name="plusminus" format="1">
  <advance width="530"/>
  <unicode hex="00B1"/>
  <outline>
    <contour>
      <point x="297" y="550" type="line"/>
      <point x="220" y="550" type="line"/>
      <point x="220" y="230" type="line"/>
      <point x="297" y="230" type="line"/>
    </contour>
    <contour>
      <point x="458" y="327" type="line"/>
      <point x="458" y="436" type="line"/>
      <point x="72" y="436" type="line"/>
      <point x="72" y="327" type="line"/>
    </contour>
    <component base="minus" xOffset="-10" yOffset="-197"/>
  </outline>
</glyph>
<glyph name="acute" format="1">
  <advance width="530"/>
  <unicode hex="00B4"/>
  <outline>
    <contour>
      <point x="136" y="613" type="line"/>
      <point x="190" y="675"/>
      <point x="322" y="693"/>
      <point x="400" y="654" type="curve"/>
      <point x="405" y="780" type="line"/>
      <point x="298" y="801"/>
      <point x="159" y="738"/>
      <point x="124" y="635" type="curve"/>
    </contour>
  </outline>
</glyph>
<glyph name="paragraph" format="1">
  <advance width="630"/>
  <unicode hex="00B6"/>
  <outline>
    <contour>
      <point x="500" y="593" type="line"/>
      <point x="500" y="0" type="line"/>
      <point x="570" y="0" type="line"/>
      <point x="570" y="750" type="line"/>
      <point x="360" y="750" type="line"/>
      <point x="183" y="750"/>
      <point x="70" y="672"/>
      <point x="70" y="500" type="curve" smooth="yes"/>
      <point x="70" y="351"/>
      <point x="179" y="270"/>
      <point x="360" y="270" type="curve"/>
      <point x="360" y="0" type="line"/>
      <point x="430" y="0" type="line"/>
      <point x="430" y="593" type="line"/>
    </contour>
  </outline>
</glyph>
<glyph name="cedilla" format="1">
  <advance width="530"/>
  <unicode hex="00B8"/>
  <outline>
    <contour>
      <point x="258" y="-210" type="curve" smooth="yes"/>
      <point x="345" y="-210"/>
      <point x="390" y="-177"/>
      <point x="390" y="-112" type="curve" smooth="yes"/>
      <point x="390" y="-63"/>
      <point x="363" y="-43"/>
      <point x="330" y="-43" type="curve" smooth="yes"/>
      <point x="277" y="-43"/>
      <point x="269" y="-36"/>
      <point x="269" y="-25" type="curve" smooth="yes"/>
      <point x="269" y="-16"/>
      <point x="271" y="-7"/>
      <point x="276" y="0" type="curve"/>
      <point x="228" y="10" type="line"/>
      <point x="214" y="-8"/>
      <point x="207" y="-29"/>
      <point x="207" y="-55" type="curve" smooth="yes"/>
      <point x="207" y="-80"/>
      <point x="231" y="-94"/>
      <point x="260" y="-94" type="curve" smooth="yes"/>
      <point x="276" y="-94"/>
      <point x="300" y="-90"/>
      <point x="318" y="-90" type="curve" smooth="yes"/>
      <point x="334" y="-90"/>
      <point x="344" y="-99"/>
      <point x="344" y="-109" type="curve" smooth="yes"/>
      <point x="344" y="-126"/>
      <point x="329" y="-134"/>
      <point x="263" y="-134" type="curve" smooth="yes"/>
      <point x="219" y="-134"/>
      <point x="186" y="-118"/>
      <point x="176" y="-101" type="curve"/>
      <point x="141" y="-157" type="line"/>
      <point x="149" y="-192"/>
      <point x="207" y="-210"/>
    </contour>
  </outline>
</glyph>
<glyph name="questiondown" format="1">
  <advance width="530"/>
  <unicode hex="00BF"/>
  <outline>
    <contour>
      <point x="319" y="219" type="curve" smooth="yes"/>
      <point x="275" y="225"/>
      <point x="218" y="246"/>
      <point x="218" y="294" type="curve" smooth="yes"/>
      <point x="218" y="313"/>
      <point x="229" y="341"/>
      <point x="241" y="364" type="curve"/>
      <point x="191" y="372" type="line"/>
      <point x="167" y="342"/>
      <point x="146" y="304"/>
      <point x="146" y="269" type="curve" smooth="yes"/>
      <point x="146" y="160"/>
      <point x="203" y="104"/>
      <point x="309" y="92" type="curve" smooth="yes"/>
      <point x="400" y="82"/>
      <point x="428" y="56"/>
      <point x="428" y="18" type="curve" smooth="yes"/>
      <point x="428" y="-20"/>
      <point x="397" y="-57"/>
      <point x="269" y="-57" type="curve" smooth="yes"/>
      <point x="187" y="-57"/>
      <point x="128" y="-32"/>
      <point x="103" y="16" type="curve"/>
      <point x="42" y="-43" type="line"/>
      <point x="69" y="-154"/>
      <point x="144" y="-210"/>
      <point x="269" y="-210" type="curve" smooth="yes"/>
      <point x="405" y="-210"/>
      <point x="488" y="-129"/>
      <point x="488" y="11" type="curve" smooth="yes"/>
      <point x="488" y="143"/>
      <point x="424" y="205"/>
    </contour>
    <contour>
      <point x="311" y="502" type="curve" smooth="yes"/>
      <point x="311" y="540"/>
      <point x="285" y="558"/>
      <point x="244" y="558" type="curve" smooth="yes"/>
      <point x="198" y="558"/>
      <point x="173" y="540"/>
      <point x="173" y="502" type="curve" smooth="yes"/>
      <point x="173" y="453"/>
      <point x="197" y="432"/>
      <point x="244" y="432" type="curve" smooth="yes"/>
      <point x="286" y="432"/>
      <point x="311" y="452"/>
    </contour>
  </outline>
</glyph>
<glyph name="AE" format="1">
  <advance width="980"/>
  <unicode hex="00C6"/>
  <outline>
    <contour>
      <point x="457" y="0" type="line"/>
      <point x="865" y="0" type="line"/>
      <point x="865" y="131" type="line"/>
      <point x="527" y="131" type="line"/>
      <point x="527" y="312" type="line"/>
      <point x="768" y="312" type="line"/>
      <point x="768" y="398" type="line"/>
      <point x="527" y="398" type="line"/>
      <point x="527" y="551" type="line"/>
      <point x="858" y="551" type="line"/>
      <point x="858" y="730" type="line"/>
      <point x="457" y="730" type="line"/>
    </contour>
    <contour>
      <point x="221" y="202" type="line"/>
      <point x="483" y="202" type="line"/>
      <point x="483" y="268" type="line"/>
      <point x="221" y="268" type="line"/>
    </contour>
    <contour>
      <point x="467" y="730" type="line"/>
      <point x="289" y="730" type="line"/>
      <point x="31" y="0" type="line"/>
      <point x="150" y="0" type="line"/>
      <point x="370" y="556" type="line"/>
      <point x="463" y="556" type="line"/>
    </contour>
  </outline>
</glyph>
<glyph name="multiply" format="1">
  <advance width="530"/>
  <unicode hex="00D7"/>
  <outline>
    <contour>
      <point x="392" y="530" type="line"/>
      <point x="42" y="102" type="line"/>
      <point x="122" y="30" type="line"/>
      <point x="467" y="470" type="line"/>
    </contour>
    <contour>
      <point x="440" y="26" type="line"/>
      <point x="488" y="72" type="line"/>
      <point x="101" y="530" type="line"/>
      <point x="52" y="485" type="line"/>
    </contour>
  </outline>
</glyph>
<glyph name="Oslash" format="1">
  <advance width="730"/>
  <unicode hex="00D8"/>
  <outline>
    <contour>
      <point x="543" y="784" type="line"/>
      <point x="147" y="-66" type="line"/>
      <point x="224" y="-80" type="line"/>
      <point x="620" y="770" type="line"/>
    </contour>
    <component base="O" xOffset="-10"/>
  </outline>
</glyph>
<glyph name="Thorn" format="1">
  <advance width="680"/>
  <unicode hex="00DE"/>
  <outline>
    <contour>
      <point x="340" y="150" type="line"/>
      <point x="504" y="150"/>
      <point x="588" y="218"/>
      <point x="588" y="370" type="curve" smooth="yes"/>
      <point x="588" y="549"/>
      <point x="499" y="618"/>
      <point x="341" y="618" type="curve"/>
      <point x="186" y="618" type="line"/>
      <point x="186" y="730" type="line"/>
      <point x="116" y="730" type="line"/>
      <point x="116" y="0" type="line"/>
      <point x="186" y="0" type="line"/>
      <point x="186" y="150" type="line"/>
    </contour>
    <contour>
      <point x="400" y="286" type="curve"/>
      <point x="186" y="286" type="line"/>
      <point x="186" y="458" type="line"/>
      <point x="400" y="458" type="line"/>
      <point x="485" y="458"/>
      <point x="527" y="421"/>
      <point x="528" y="370" type="curve" smooth="yes"/>
      <point x="529" y="323"/>
      <point x="482" y="286"/>
    </contour>
  </outline>
</glyph>
<glyph name="germandbls" format="1">
  <advance width="530"/>
  <unicode hex="00DF"/>
  <outline>
    <contour>
      <point x="269" y="0" type="line"/>
      <point x="427" y="0"/>
      <point x="507" y="83"/>
      <point x="507" y="195" type="curve" smooth="yes"/>
      <point x="507" y="295"/>
      <point x="463" y="362"/>
      <point x="378" y="373" type="curve"/>
      <point x="449" y="385"/>
      <point x="485" y="447"/>
      <point x="485" y="521" type="curve" smooth="yes"/>
      <point x="485" y="656"/>
      <point x="399" y="740"/>
      <point x="259" y="740" type="curve" smooth="yes"/>
      <point x="144" y="740"/>
      <point x="56" y="671"/>
      <point x="56" y="539" type="curve"/>
      <point x="56" y="0" type="line"/>
      <point x="121" y="0" type="line"/>
      <point x="121" y="491" type="line" smooth="yes"/>
      <point x="121" y="549"/>
      <point x="163" y="581"/>
      <point x="276" y="581" type="curve" smooth="yes"/>
      <point x="377" y="581"/>
      <point x="428" y="541"/>
      <point x="427" y="496" type="curve" smooth="yes"/>
      <point x="426" y="447"/>
      <point x="384" y="410"/>
      <point x="279" y="410" type="curve"/>
      <point x="178" y="410" type="line"/>
      <point x="178" y="324" type="line"/>
      <point x="279" y="324" type="line"/>
      <point x="394" y="324"/>
      <point x="445" y="280"/>
      <point x="444" y="224" type="curve" smooth="yes"/>
      <point x="443" y="160"/>
      <point x="390" y="125"/>
      <point x="279" y="125" type="curve" smooth="yes"/>
      <point x="180" y="125" type="line"/>
      <point x="180" y="0" type="line"/>
    </contour>
  </outline>
</glyph>
<glyph name="ae" format="1">
  <advance width="880"/>
  <unicode hex="00E6"/>
  <outline>
    <contour>
      <point x="458" y="316" type="line" smooth="yes"/>
      <point x="458" y="501"/>
      <point x="397" y="560"/>
      <point x="261" y="560" type="curve" smooth="yes"/>
      <point x="186" y="560"/>
      <point x="123" y="537"/>
      <point x="85" y="492" type="curve"/>
      <point x="89" y="363" type="line"/>
      <point x="116" y="395"/>
      <point x="166" y="422"/>
      <point x="251" y="422" type="curve" smooth="yes"/>
      <point x="351" y="422"/>
      <point x="395" y="377"/>
      <point x="395" y="269" type="curve"/>
      <point x="395" y="61" type="line"/>
    </contour>
    <contour>
      <point x="424" y="257" type="line"/>
      <point x="397" y="311"/>
      <point x="297" y="327"/>
      <point x="235" y="327" type="curve" smooth="yes"/>
      <point x="111" y="327"/>
      <point x="35" y="265"/>
      <point x="35" y="155" type="curve" smooth="yes"/>
      <point x="35" y="58"/>
      <point x="103" y="-10"/>
      <point x="245" y="-10" type="curve" smooth="yes"/>
      <point x="358" y="-10"/>
      <point x="408" y="22"/>
      <point x="445" y="85" type="curve"/>
      <point x="418" y="170" type="line"/>
      <point x="395" y="119"/>
      <point x="327" y="95"/>
      <point x="246" y="95" type="curve" smooth="yes"/>
      <point x="170" y="95"/>
      <point x="113" y="132"/>
      <point x="113" y="173" type="curve" smooth="yes"/>
      <point x="113" y="223"/>
      <point x="160" y="256"/>
      <point x="253" y="256" type="curve" smooth="yes"/>
      <point x="320" y="256"/>
      <point x="371" y="235"/>
      <point x="418" y="191" type="curve"/>
    </contour>
    <component base="e" xOffset="345"/>
  </outline>
</glyph>
<glyph name="divide" format="1">
  <advance width="530"/>
  <unicode hex="00F7"/>
  <outline>
    <contour>
      <point x="345" y="148" type="curve" smooth="yes"/>
      <point x="345" y="196"/>
      <point x="318" y="215"/>
      <point x="271" y="215" type="curve" smooth="yes"/>
      <point x="218" y="215"/>
      <point x="191" y="195"/>
      <point x="191" y="148" type="curve" smooth="yes"/>
      <point x="191" y="105"/>
      <point x="219" y="84"/>
      <point x="271" y="84" type="curve" smooth="yes"/>
      <point x="317" y="84"/>
      <point x="345" y="105"/>
    </contour>
    <contour>
      <point x="343" y="487" type="curve" smooth="yes"/>
      <point x="343" y="535"/>
      <point x="316" y="554"/>
      <point x="269" y="554" type="curve" smooth="yes"/>
      <point x="216" y="554"/>
      <point x="189" y="534"/>
      <point x="189" y="487" type="curve" smooth="yes"/>
      <point x="189" y="444"/>
      <point x="216" y="423"/>
      <point x="269" y="423" type="curve" smooth="yes"/>
      <point x="315" y="423"/>
      <point x="343" y="444"/>
    </contour>
    <component base="minus" xOffset="-10"/>
  </outline>
</glyph>
<glyph name="gcommaaccent" format="1">
  <advance width="580"/>
  <unicode hex="0123"/>
  <outline>
    <contour>
      <point x="391.150634602" y="780.0" type="line"/>
      <point x="335.422510441" y="734.40426205"/>
      <point x="316.819264762" y="682.968515314"/>
      <point x="340.150634602" y="630.0" type="curve"/>
      <point x="214.150634602" y="630.0" type="line"/>
      <point x="203.357299747" y="696.464219898"/>
      <point x="268.240480202" y="762.932783577"/>
      <point x="371.150634602" y="794.0" type="curve"/>
    </contour>
    <component base="g" xOffset="-10"/>
  </outline>
</glyph>
<glyph name="IJ" format="1">
  <advance width="830"/>
  <unicode hex="0132"/>
  <outline>
    <contour>
      <point x="350" y="0" type="line"/>
      <point x="350" y="141" type="line"/>
      <point x="278" y="141" type="line"/>
      <point x="278" y="550" type="line"/>
      <point x="380" y="550" type="line"/>
      <point x="380" y="730" type="line"/>
      <point x="66" y="730" type="line"/>
      <point x="66" y="550" type="line"/>
      <point x="206" y="550" type="line"/>
      <point x="206" y="141" type="line"/>
      <point x="60" y="141" type="line"/>
      <point x="60" y="0" type="line"/>
    </contour>
    <contour>
      <point x="565" y="-10" type="curve" smooth="yes"/>
      <point x="682" y="-10"/>
      <point x="735" y="71"/>
      <point x="735" y="276" type="curve"/>
      <point x="735" y="730" type="line"/>
      <point x="454" y="730" type="line"/>
      <point x="454" y="555" type="line"/>
      <point x="665" y="555" type="line"/>
      <point x="665" y="306" type="line"/>
      <point x="665" y="183"/>
      <point x="622" y="129"/>
      <point x="552" y="129" type="curve" smooth="yes"/>
      <point x="508" y="129"/>
      <point x="461" y="140"/>
      <point x="426" y="159" type="curve"/>
      <point x="426" y="18" type="line"/>
      <point x="456" y="-2"/>
      <point x="511" y="-10"/>
    </contour>
  </outline>
</glyph>
<glyph name="ij" format="1">
  <advance width="530"/>
  <unicode hex="0133"/>
  <outline>
    <contour>
      <point x="480" y="-67" type="curve" smooth="yes"/>
      <point x="480" y="540" type="line"/>
      <point x="300" y="540" type="line"/>
      <point x="300" y="368" type="line"/>
      <point x="415" y="368" type="line"/>
      <point x="415" y="11" type="line" smooth="yes"/>
      <point x="415" y="-58"/>
      <point x="387" y="-78"/>
      <point x="339" y="-80" type="curve" smooth="yes"/>
      <point x="315" y="-81"/>
      <point x="283" y="-73"/>
      <point x="260" y="-48" type="curve"/>
      <point x="232" y="-148" type="line"/>
      <point x="251" y="-179"/>
      <point x="292" y="-210"/>
      <point x="358" y="-210" type="curve" smooth="yes"/>
      <point x="436" y="-210"/>
      <point x="480" y="-159"/>
    </contour>
    <contour>
      <point x="495" y="709" type="curve" smooth="yes"/>
      <point x="495" y="767"/>
      <point x="463" y="790"/>
      <point x="409" y="790" type="curve" smooth="yes"/>
      <point x="349" y="790"/>
      <point x="319" y="766"/>
      <point x="319" y="709" type="curve" smooth="yes"/>
      <point x="319" y="652"/>
      <point x="351" y="625"/>
      <point x="409" y="625" type="curve" smooth="yes"/>
      <point x="461" y="625"/>
      <point x="495" y="652"/>
    </contour>
    <component base="i" xOffset="-20"/>
  </outline>
</glyph>
<glyph name="kgreenlandic" format="1">
  <advance width="530"/>
  <unicode hex="0138"/>
  <outline>
    <contour>
      <point x="61" y="0" type="line"/>
      <point x="125" y="0" type="line"/>
      <point x="125" y="550" type="line"/>
      <point x="61" y="550" type="line"/>
    </contour>
    <contour>
      <point x="187" y="309" type="line"/>
      <point x="423" y="0" type="line"/>
      <point x="506" y="0" type="line" smooth="yes"/>
      <point x="223" y="373" type="line"/>
    </contour>
    <contour>
      <point x="307" y="550" type="line"/>
      <point x="84" y="286" type="line"/>
      <point x="84" y="104" type="line"/>
      <point x="487" y="550" type="line"/>
    </contour>
  </outline>
</glyph>
<glyph name="eng" format="1">
  <advance width="530"/>
  <unicode hex="014B"/>
  <outline>
    <contour>
      <point x="475" y="-67" type="curve" smooth="yes"/>
      <point x="475" y="11" type="line"/>
      <point x="412" y="11" type="line"/>
      <point x="404" y="-57"/>
      <point x="384" y="-78"/>
      <point x="336" y="-80" type="curve"/>
      <point x="355" y="-210" type="line"/>
      <point x="432" y="-210"/>
      <point x="475" y="-159"/>
    </contour>
    <component base="n" xOffset="-10"/>
  </outline>
</glyph>
<glyph name="OE" format="1">
  <advance width="980"/>
  <unicode hex="0152"/>
  <outline>
    <contour>
      <point x="374" y="129" type="curve" smooth="yes"/>
      <point x="213" y="129"/>
      <point x="129" y="210"/>
      <point x="130" y="348" type="curve" smooth="yes"/>
      <point x="131" y="464"/>
      <point x="208" y="544"/>
      <point x="369" y="544" type="curve" smooth="yes"/>
      <point x="428" y="544"/>
      <point x="471" y="530"/>
      <point x="516" y="509" type="curve"/>
      <point x="516" y="163" type="line"/>
      <point x="466" y="142"/>
      <point x="431" y="129"/>
    </contour>
    <contour>
      <point x="375" y="-10" type="curve" smooth="yes"/>
      <point x="429" y="-10"/>
      <point x="475" y="-2"/>
      <point x="516" y="13" type="curve"/>
      <point x="516" y="717" type="line"/>
      <point x="475" y="732"/>
      <point x="428" y="740"/>
      <point x="374" y="740" type="curve" smooth="yes"/>
      <point x="192" y="740"/>
      <point x="67" y="633"/>
      <point x="67" y="352" type="curve" smooth="yes"/>
      <point x="67" y="103"/>
      <point x="188" y="-10"/>
    </contour>
    <contour>
      <point x="479" y="0" type="line"/>
      <point x="874" y="0" type="line"/>
      <point x="874" y="131" type="line"/>
      <point x="548" y="131" type="line"/>
      <point x="548" y="312" type="line"/>
      <point x="777" y="312" type="line"/>
      <point x="777" y="398" type="line"/>
      <point x="548" y="398" type="line"/>
      <point x="548" y="551" type="line"/>
      <point x="868" y="551" type="line"/>
      <point x="868" y="730" type="line"/>
      <point x="479" y="730" type="line"/>
    </contour>
  </outline>
</glyph>
<glyph name="tbar" format="1">
  <advance width="430"/>
  <unicode hex="0167"/>
  <outline>
    <contour>
      <point x="335" y="256" type="line"/>
      <point x="335" y="330" type="line"/>
      <point x="35" y="330" type="line"/>
      <point x="35" y="256" type="line"/>
    </contour>
    <component base="t" xOffset="-10"/>
  </outline>
</glyph>
<glyph name="longs" format="1">
  <advance width="330"/>
  <unicode hex="017F"/>
  <outline>
    <contour>
      <point x="184" y="498" type="line"/>
      <point x="184" y="608"/>
      <point x="220" y="644"/>
      <point x="282" y="644" type="curve" smooth="yes"/>
      <point x="320" y="644"/>
      <point x="350" y="632"/>
      <point x="363" y="617" type="curve"/>
      <point x="403" y="748" type="line"/>
      <point x="381" y="773"/>
      <point x="339" y="790"/>
      <point x="274" y="790" type="curve" smooth="yes"/>
      <point x="173" y="790"/>
      <point x="120" y="725"/>
      <point x="120" y="504" type="curve"/>
      <point x="119" y="504" type="line"/>
      <point x="119" y="0" type="line"/>
      <point x="184" y="0" type="line"/>
    </contour>
  </outline>
</glyph>
<glyph name="circumflex" format="1">
  <advance width="530"/>
  <unicode hex="02C6"/>
  <outline>
    <contour>
      <point x="454" y="625" type="curve"/>
      <point x="454" y="659" type="line"/>
      <point x="390" y="670"/>
      <point x="314" y="741"/>
      <point x="282" y="800" type="curve"/>
      <point x="262" y="800" type="line"/>
      <point x="230" y="741"/>
      <point x="154" y="670"/>
      <point x="90" y="659" type="curve"/>
      <point x="90" y="625" type="line"/>
      <point x="158" y="620"/>
      <point x="252" y="639"/>
      <point x="272" y="679" type="curve"/>
      <point x="292" y="639"/>
      <point x="386" y="620"/>
    </contour>
  </outline>
</glyph>
<glyph name="breve" format="1">
  <advance width="530"/>
  <unicode hex="02D8"/>
  <outline>
    <contour>
      <point x="260" y="619" type="curve"/>
      <point x="362" y="619"/>
      <point x="435" y="674"/>
      <point x="435" y="800" type="curve"/>
      <point x="385" y="800" type="line"/>
      <point x="386" y="729"/>
      <point x="329" y="706"/>
      <point x="260" y="706" type="curve"/>
      <point x="199" y="706"/>
      <point x="145" y="729"/>
      <point x="146" y="800" type="curve"/>
      <point x="95" y="800" type="line"/>
      <point x="95" y="674"/>
      <point x="164" y="619"/>
    </contour>
  </outline>
</glyph>
<glyph name="ogonek" format="1">
  <advance width="530"/>
  <unicode hex="02DB"/>
  <outline>
    <contour>
      <point x="373" y="-155" type="line"/>
      <point x="359" y="-162"/>
      <point x="342" y="-163"/>
      <point x="326" y="-163" type="curve" smooth="yes"/>
      <point x="278" y="-162"/>
      <point x="239" y="-129"/>
      <point x="239" y="-81" type="curve" smooth="yes"/>
      <point x="239" y="-42"/>
      <point x="253" y="-12"/>
      <point x="270" y="0" type="curve"/>
      <point x="231" y="32" type="line"/>
      <point x="164" y="-10"/>
      <point x="144" y="-62"/>
      <point x="144" y="-103" type="curve" smooth="yes"/>
      <point x="145" y="-167"/>
      <point x="193" y="-210"/>
      <point x="284" y="-210" type="curve" smooth="yes"/>
      <point x="326" y="-210"/>
      <point x="364" y="-203"/>
      <point x="386" y="-190" type="curve"/>
    </contour>
  </outline>
</glyph>
<glyph name="hungarumlaut" format="1">
  <advance width="530"/>
  <unicode hex="02DD"/>
  <outline>
    <contour>
      <point x="153" y="606" type="line"/>
      <point x="165" y="679"/>
      <point x="219" y="726"/>
      <point x="272" y="737" type="curve"/>
      <point x="258" y="795" type="line"/>
      <point x="149" y="794"/>
      <point x="106" y="724"/>
      <point x="120" y="609" type="curve"/>
    </contour>
    <contour>
      <point x="335" y="606" type="line"/>
      <point x="347" y="680"/>
      <point x="401" y="726"/>
      <point x="454" y="737" type="curve"/>
      <point x="440" y="795" type="line"/>
      <point x="331" y="795"/>
      <point x="288" y="724"/>
      <point x="302" y="609" type="curve"/>
    </contour>
  </outline>
</glyph>
<glyph name="mu" format="1">
  <advance width="580"/>
  <unicode hex="03BC"/>
  <outline>
    <contour>
      <point x="119" y="550" type="line"/>
      <point x="55" y="550" type="line"/>
      <point x="55" y="-200" type="line"/>
      <point x="119" y="-200" type="line"/>
    </contour>
    <component base="u" xOffset="-10"/>
  </outline>
</glyph>
<glyph name="endash" format="1">
  <advance width="530"/>
  <unicode hex="2013"/>
  <outline>
    <contour>
      <point x="495" y="256" type="line"/>
      <point x="495" y="330" type="line"/>
      <point x="35" y="330" type="line"/>
      <point x="35" y="256" type="line"/>
    </contour>
    <component base="enspace" xOffset="-10"/>
  </outline>
</glyph>
<glyph name="emdash" format="1">
  <advance width="830"/>
  <unicode hex="2014"/>
  <outline>
    <contour>
      <point x="795" y="256" type="line"/>
      <point x="795" y="330" type="line"/>
      <point x="35" y="330" type="line"/>
      <point x="35" y="256" type="line"/>
    </contour>
    <component base="emspace" xOffset="-10"/>
    <component base="emspace" xOffset="-10"/>
  </outline>
</glyph>
<glyph name="quoteleft" format="1">
  <advance width="230"/>
  <unicode hex="2018"/>
  <outline>
    <contour>
      <point x="205" y="736" type="curve"/>
      <point x="185" y="750" type="line"/>
      <point x="79" y="718"/>
      <point x="9" y="570"/>
      <point x="28" y="453" type="curve"/>
      <point x="154" y="453" type="line"/>
      <point x="117" y="537"/>
      <point x="139" y="682"/>
    </contour>
  </outline>
</glyph>
<glyph name="quoteright" format="1">
  <advance width="230"/>
  <unicode hex="2019"/>
  <outline>
    <contour>
      <point x="25" y="467" type="curve"/>
      <point x="45" y="453" type="line"/>
      <point x="151" y="485"/>
      <point x="221" y="633"/>
      <point x="202" y="750" type="curve"/>
      <point x="76" y="750" type="line"/>
      <point x="113" y="666"/>
      <point x="91" y="521"/>
    </contour>
  </outline>
</glyph>
<glyph name="bullet" format="1">
  <advance width="330"/>
  <unicode hex="2022"/>
  <outline>
    <contour>
      <point x="273" y="276" type="curve" smooth="yes"/>
      <point x="273" y="342"/>
      <point x="233" y="378"/>
      <point x="168" y="378" type="curve" smooth="yes"/>
      <point x="94" y="378"/>
      <point x="57" y="341"/>
      <point x="57" y="276" type="curve" smooth="yes"/>
      <point x="57" y="216"/>
      <point x="95" y="177"/>
      <point x="168" y="177" type="curve" smooth="yes"/>
      <point x="232" y="177"/>
      <point x="273" y="216"/>
    </contour>
  </outline>
</glyph>
<glyph name="perthousand" format="1">
  <advance width="980"/>
  <unicode hex="2030"/>
  <outline>
    <contour>
      <point x="695" y="800" type="line"/>
      <point x="602" y="800" type="line"/>
      <point x="60" y="-90" type="line"/>
      <point x="153" y="-90" type="line"/>
    </contour>
    <contour>
      <point x="320" y="618" type="curve"/>
      <point x="319" y="717"/>
      <point x="255" y="760"/>
      <point x="184" y="760" type="curve" smooth="yes"/>
      <point x="106" y="760"/>
      <point x="51" y="716"/>
      <point x="50" y="618" type="curve"/>
      <point x="51" y="519"/>
      <point x="115" y="476"/>
      <point x="186" y="476" type="curve" smooth="yes"/>
      <point x="264" y="476"/>
      <point x="319" y="520"/>
    </contour>
    <contour>
      <point x="271" y="613" type="curve"/>
      <point x="269" y="568"/>
      <point x="232" y="555"/>
      <point x="186" y="555" type="curve" smooth="yes"/>
      <point x="138" y="555"/>
      <point x="101" y="572"/>
      <point x="100" y="613" type="curve"/>
      <point x="101" y="659"/>
      <point x="138" y="672"/>
      <point x="184" y="672" type="curve" smooth="yes"/>
      <point x="232" y="672"/>
      <point x="269" y="653"/>
    </contour>
    <contour>
      <point x="705" y="132" type="curve"/>
      <point x="704" y="231"/>
      <point x="640" y="274"/>
      <point x="569" y="274" type="curve" smooth="yes"/>
      <point x="491" y="274"/>
      <point x="436" y="230"/>
      <point x="435" y="132" type="curve"/>
      <point x="436" y="33"/>
      <point x="500" y="-10"/>
      <point x="571" y="-10" type="curve" smooth="yes"/>
      <point x="649" y="-10"/>
      <point x="704" y="34"/>
    </contour>
    <contour>
      <point x="656" y="127" type="curve"/>
      <point x="654" y="82"/>
      <point x="617" y="69"/>
      <point x="571" y="69" type="curve" smooth="yes"/>
      <point x="523" y="69"/>
      <point x="486" y="86"/>
      <point x="485" y="127" type="curve"/>
      <point x="486" y="173"/>
      <point x="523" y="186"/>
      <point x="569" y="186" type="curve" smooth="yes"/>
      <point x="617" y="186"/>
      <point x="654" y="167"/>
    </contour>
    <contour>
      <point x="1025" y="132" type="curve"/>
      <point x="1024" y="231"/>
      <point x="960" y="274"/>
      <point x="889" y="274" type="curve" smooth="yes"/>
      <point x="811" y="274"/>
      <point x="756" y="230"/>
      <point x="755" y="132" type="curve"/>
      <point x="756" y="33"/>
      <point x="820" y="-10"/>
      <point x="891" y="-10" type="curve" smooth="yes"/>
      <point x="969" y="-10"/>
      <point x="1024" y="34"/>
    </contour>
    <contour>
      <point x="976" y="127" type="curve"/>
      <point x="974" y="82"/>
      <point x="937" y="69"/>
      <point x="891" y="69" type="curve" smooth="yes"/>
      <point x="843" y="69"/>
      <point x="806" y="86"/>
      <point x="805" y="127" type="curve"/>
      <point x="806" y="173"/>
      <point x="843" y="186"/>
      <point x="889" y="186" type="curve" smooth="yes"/>
      <point x="937" y="186"/>
      <point x="974" y="167"/>
    </contour>
  </outline>
</glyph>
<glyph name="guilsinglleft" format="1">
  <advance width="230"/>
  <unicode hex="2039"/>
  <outline>
    <contour>
      <point x="20" y="271" type="line"/>
      <point x="174" y="-10" type="line"/>
      <point x="174" y="204" type="line"/>
      <point x="70" y="271" type="line"/>
      <point x="181" y="360" type="line"/>
      <point x="181" y="570" type="line"/>
    </contour>
  </outline>
</glyph>
<glyph name="arrowleft" format="1">
  <advance width="730"/>
  <unicode hex="2190"/>
  <outline>
    <contour>
      <point x="712" y="416" type="line"/>
      <point x="375" y="416" type="line"/>
      <point x="325" y="416"/>
      <point x="264" y="379"/>
      <point x="231" y="344" type="curve"/>
      <point x="231" y="513" type="line"/>
      <point x="18" y="295" type="line"/>
      <point x="231" y="78" type="line"/>
      <point x="231" y="247" type="line"/>
      <point x="261" y="212"/>
      <point x="325" y="175"/>
      <point x="366" y="175" type="curve"/>
      <point x="712" y="175" type="line"/>
      <point x="632" y="295" type="line"/>
    </contour>
  </outline>
</glyph>
<glyph name="approxequal" format="1">
  <advance width="530"/>
  <unicode hex="2248"/>
  <outline>
    <contour>
      <point x="267" y="487" type="curve" smooth="yes"/>
      <point x="184" y="519"/>
      <point x="84" y="497"/>
      <point x="57" y="420" type="curve"/>
      <point x="64" y="377" type="line"/>
      <point x="86" y="402"/>
      <point x="181" y="424"/>
      <point x="264" y="386" type="curve" smooth="yes"/>
      <point x="328" y="357"/>
      <point x="440" y="372"/>
      <point x="474" y="458" type="curve"/>
      <point x="467" y="501" type="line"/>
      <point x="448" y="480"/>
      <point x="341" y="458"/>
    </contour>
    <contour>
      <point x="267" y="275" type="curve" smooth="yes"/>
      <point x="184" y="307"/>
      <point x="84" y="285"/>
      <point x="57" y="208" type="curve"/>
      <point x="64" y="165" type="line"/>
      <point x="86" y="190"/>
      <point x="181" y="212"/>
      <point x="264" y="174" type="curve" smooth="yes"/>
      <point x="328" y="145"/>
      <point x="440" y="160"/>
      <point x="474" y="246" type="curve"/>
      <point x="467" y="289" type="line"/>
      <point x="448" y="268"/>
      <point x="341" y="246"/>
    </contour>
  </outline>
</glyph>
<glyph name="poinggauche" format="1">
  <advance width="880"/>
  <unicode hex="261A"/>
  <outline>
    <contour>
      <point x="310" y="97"/>
      <point x="353" y="139"/>
      <point x="353" y="245" type="curve" smooth="yes"/>
      <point x="353" y="300"/>
      <point x="344" y="335"/>
      <point x="322" y="346" type="curve"/>
      <point x="312" y="338"/>
      <point x="289" y="334"/>
      <point x="262" y="334" type="curve" smooth="yes"/>
      <point x="215" y="334"/>
      <point x="178" y="381"/>
      <point x="178" y="429" type="curve" smooth="yes"/>
      <point x="178" y="456"/>
      <point x="184" y="468"/>
      <point x="192" y="478" type="curve"/>
      <point x="107" y="492"/>
      <point x="44" y="443"/>
      <point x="44" y="296" type="curve" smooth="yes"/>
      <point x="44" y="144"/>
      <point x="100" y="97"/>
      <point x="205" y="97" type="curve" smooth="yes"/>
    </contour>
    <contour>
      <point x="355" y="127" type="curve"/>
      <point x="372" y="124"/>
      <point x="387" y="127"/>
      <point x="430" y="135" type="curve" smooth="yes"/>
      <point x="463" y="147"/>
      <point x="504" y="185"/>
      <point x="504" y="313" type="curve" smooth="yes"/>
      <point x="504" y="418"/>
      <point x="485" y="448"/>
      <point x="448" y="476" type="curve" smooth="yes"/>
      <point x="428" y="491"/>
      <point x="386" y="518"/>
      <point x="368" y="520" type="curve" smooth="yes"/>
      <point x="314" y="526"/>
      <point x="279" y="511"/>
      <point x="252" y="493" type="curve" smooth="yes"/>
      <point x="226" y="476"/>
      <point x="213" y="459"/>
      <point x="213" y="443" type="curve" smooth="yes"/>
      <point x="213" y="400"/>
      <point x="233" y="376"/>
      <point x="288" y="376" type="curve"/>
      <point x="327" y="376"/>
      <point x="367" y="400"/>
      <point x="367" y="447" type="curve"/>
      <point x="375" y="449" type="line"/>
      <point x="388" y="408"/>
      <point x="372" y="376"/>
      <point x="352" y="363" type="curve"/>
      <point x="399" y="328"/>
      <point x="407" y="181"/>
    </contour>
    <contour>
      <point x="520" y="168" type="curve"/>
      <point x="597" y="168" type="line" smooth="yes"/>
      <point x="644" y="168"/>
      <point x="670" y="212"/>
      <point x="670" y="260" type="curve" smooth="yes"/>
      <point x="670" y="283"/>
      <point x="663" y="293"/>
      <point x="648" y="293" type="curve" smooth="yes"/>
      <point x="628" y="293" type="line"/>
      <point x="646" y="241" type="line"/>
      <point x="639" y="238" type="line"/>
      <point x="600" y="299" type="line"/>
      <point x="565" y="238" type="line"/>
      <point x="557" y="241" type="line"/>
      <point x="574" y="293" type="line"/>
      <point x="545" y="293" type="line"/>
      <point x="545" y="246"/>
      <point x="534" y="204"/>
    </contour>
    <contour>
      <point x="692" y="410" type="line"/>
      <point x="707" y="355" type="line"/>
      <point x="836" y="379" type="line"/>
    </contour>
    <contour>
      <point x="707" y="336" type="line"/>
      <point x="707" y="275" type="line"/>
      <point x="836" y="305" type="line"/>
    </contour>
    <contour>
      <point x="707" y="253" type="line"/>
      <point x="692" y="197" type="line"/>
      <point x="836" y="233" type="line"/>
    </contour>
    <contour>
      <point x="520" y="447" type="line"/>
      <point x="534" y="411"/>
      <point x="545" y="369"/>
      <point x="545" y="322" type="curve"/>
      <point x="574" y="322" type="line"/>
      <point x="557" y="374" type="line"/>
      <point x="565" y="377" type="line"/>
      <point x="600" y="316" type="line"/>
      <point x="639" y="377" type="line"/>
      <point x="646" y="374" type="line"/>
      <point x="628" y="322" type="line"/>
      <point x="648" y="322" type="line" smooth="yes"/>
      <point x="663" y="322"/>
      <point x="670" y="332"/>
      <point x="670" y="355" type="curve" smooth="yes"/>
      <point x="670" y="403"/>
      <point x="644" y="447"/>
      <point x="597" y="447" type="curve" smooth="yes"/>
    </contour>
  </outline>
</glyph>
<glyph name="poingdroite" format="1">
  <advance width="880"/>
  <unicode hex="261B"/>
  <outline>
    <contour>
      <point x="527" y="139"/>
      <point x="570" y="97"/>
      <point x="675" y="97" type="curve" smooth="yes"/>
      <point x="780" y="97"/>
      <point x="836" y="144"/>
      <point x="836" y="296" type="curve" smooth="yes"/>
      <point x="836" y="443"/>
      <point x="773" y="492"/>
      <point x="688" y="478" type="curve"/>
      <point x="696" y="468"/>
      <point x="702" y="456"/>
      <point x="702" y="429" type="curve" smooth="yes"/>
      <point x="702" y="381"/>
      <point x="665" y="334"/>
      <point x="618" y="334" type="curve" smooth="yes"/>
      <point x="591" y="334"/>
      <point x="568" y="338"/>
      <point x="558" y="346" type="curve"/>
      <point x="536" y="335"/>
      <point x="527" y="300"/>
      <point x="527" y="245" type="curve" smooth="yes"/>
    </contour>
    <contour>
      <point x="525" y="127" type="curve"/>
      <point x="473" y="181"/>
      <point x="481" y="328"/>
      <point x="528" y="363" type="curve"/>
      <point x="508" y="376"/>
      <point x="492" y="408"/>
      <point x="505" y="449" type="curve"/>
      <point x="513" y="447" type="line"/>
      <point x="513" y="400"/>
      <point x="553" y="376"/>
      <point x="592" y="376" type="curve"/>
      <point x="647" y="376"/>
      <point x="667" y="400"/>
      <point x="667" y="443" type="curve" smooth="yes"/>
      <point x="667" y="459"/>
      <point x="654" y="476"/>
      <point x="628" y="493" type="curve" smooth="yes"/>
      <point x="601" y="511"/>
      <point x="566" y="526"/>
      <point x="512" y="520" type="curve" smooth="yes"/>
      <point x="494" y="518"/>
      <point x="452" y="491"/>
      <point x="432" y="476" type="curve" smooth="yes"/>
      <point x="395" y="448"/>
      <point x="376" y="418"/>
      <point x="376" y="313" type="curve" smooth="yes"/>
      <point x="376" y="185"/>
      <point x="417" y="147"/>
      <point x="450" y="135" type="curve" smooth="yes"/>
      <point x="493" y="127"/>
      <point x="508" y="124"/>
    </contour>
    <contour>
      <point x="360" y="168" type="line"/>
      <point x="346" y="204"/>
      <point x="335" y="246"/>
      <point x="335" y="293" type="curve"/>
      <point x="306" y="293" type="line"/>
      <point x="323" y="241" type="line"/>
      <point x="315" y="238" type="line"/>
      <point x="280" y="299" type="line"/>
      <point x="241" y="238" type="line"/>
      <point x="234" y="241" type="line"/>
      <point x="252" y="293" type="line"/>
      <point x="232" y="293" type="line" smooth="yes"/>
      <point x="217" y="293"/>
      <point x="210" y="283"/>
      <point x="210" y="260" type="curve" smooth="yes"/>
      <point x="210" y="212"/>
      <point x="236" y="168"/>
      <point x="283" y="168" type="curve" smooth="yes"/>
    </contour>
    <contour>
      <point x="188" y="410" type="line"/>
      <point x="44" y="379" type="line"/>
      <point x="173" y="355" type="line"/>
    </contour>
    <contour>
      <point x="173" y="336" type="line"/>
      <point x="44" y="305" type="line"/>
      <point x="173" y="275" type="line"/>
    </contour>
    <contour>
      <point x="173" y="253" type="line"/>
      <point x="44" y="233" type="line"/>
      <point x="188" y="197" type="line"/>
    </contour>
    <contour>
      <point x="360" y="447" type="curve"/>
      <point x="283" y="447" type="line" smooth="yes"/>
      <point x="236" y="447"/>
      <point x="210" y="403"/>
      <point x="210" y="355" type="curve" smooth="yes"/>
      <point x="210" y="332"/>
      <point x="217" y="322"/>
      <point x="232" y="322" type="curve" smooth="yes"/>
      <point x="252" y="322" type="line"/>
      <point x="234" y="374" type="line"/>
      <point x="241" y="377" type="line"/>
      <point x="280" y="316" type="line"/>
      <point x="315" y="377" type="line"/>
      <point x="323" y="374" type="line"/>
      <point x="306" y="322" type="line"/>
      <point x="335" y="322" type="line"/>
      <point x="335" y="369"/>
      <point x="346" y="411"/>
    </contour>
  </outline>
</glyph>
<glyph name="wech" format="1">
  <advance width="730"/>
  <unicode hex="F8FF"/>
  <outline>
    <contour>
      <point x="646" y="83" type="line"/>
      <point x="83" y="83" type="line"/>
      <point x="83" y="658" type="line"/>
      <point x="646" y="658" type="line"/>
    </contour>
    <contour>
      <point x="116" y="116" type="line"/>
      <point x="613" y="116" type="line"/>
      <point x="613" y="625" type="line"/>
      <point x="116" y="625" type="line"/>
    </contour>
    <contour>
      <point x="321.625800125" y="412.028169375" type="line"/>
      <point x="281.839992875" y="412.028169375" type="line"/>
      <point x="265.925405375" y="448.754649375" type="line"/>
      <point x="265.925405375" y="451.815079125" type="line"/>
      <point x="260.416102625" y="451.815079125" type="line"/>
      <point x="260.416102625" y="448.754649375" type="line"/>
      <point x="243.889407125" y="412.028169375" type="line"/>
      <point x="204.102497375" y="412.028169375" type="line"/>
      <point x="183.903815375" y="583.416314625" type="line"/>
      <point x="224.914279625" y="583.416314625" type="line"/>
      <point x="238.992212375" y="467.117668875" type="line"/>
      <point x="245.113512875" y="467.117668875" type="line"/>
      <point x="246.337177625" y="515.472657375" type="line"/>
      <point x="279.391119875" y="515.472657375" type="line"/>
      <point x="280.614784625" y="467.117668875" type="line"/>
      <point x="287.348193125" y="467.117668875" type="line"/>
      <point x="295.917925625" y="583.416314625" type="line"/>
      <point x="338.152054625" y="583.416314625" type="line"/>
    </contour>
    <contour>
      <point x="522.094036625" y="548.526048375" type="line"/>
      <point x="452.315709125" y="548.526048375" type="line"/>
      <point x="452.315709125" y="516.085206375" type="line"/>
      <point x="509.240871125" y="516.085206375" type="line"/>
      <point x="509.240871125" y="481.196593875" type="line"/>
      <point x="452.315709125" y="481.196593875" type="line"/>
      <point x="452.315709125" y="446.918435625" type="line"/>
      <point x="523.319244875" y="446.918435625" type="line"/>
      <point x="523.319244875" y="412.027618125" type="line"/>
      <point x="408.856261625" y="412.027618125" type="line"/>
      <point x="408.856261625" y="583.415763375" type="line"/>
      <point x="522.094036625" y="583.415763375" type="line"/>
    </contour>
    <contour>
      <point x="314.763729875" y="199.165958625" type="move"/>
      <point x="317.824159625" y="159.991708125" type="line"/>
      <point x="308.030872625" y="154.483507875"/>
      <point x="290.892620375" y="152.646742875"/>
      <point x="274.364822375" y="152.646742875" type="curve" smooth="yes"/>
      <point x="222.948852875" y="152.646742875"/>
      <point x="191.732667875" y="186.312793125"/>
      <point x="191.732667875" y="242.625406125" type="curve" smooth="yes"/>
      <point x="191.732667875" y="298.933609125"/>
      <point x="226.009282625" y="331.375553625"/>
      <point x="276.813585125" y="331.375553625" type="curve" smooth="yes"/>
      <point x="293.339839625" y="331.375553625"/>
      <point x="309.254537375" y="327.089915625"/>
      <point x="317.824159625" y="322.805931375" type="curve"/>
      <point x="314.763729875" y="284.243678625" type="line"/>
      <point x="308.030872625" y="289.139770875"/>
      <point x="293.952939875" y="291.588643875"/>
      <point x="283.546552625" y="291.588643875" type="curve" smooth="yes"/>
      <point x="254.777586875" y="291.588643875"/>
      <point x="238.251442625" y="275.063050875"/>
      <point x="238.251442625" y="243.236962875" type="curve" smooth="yes"/>
      <point x="238.251442625" y="210.796120875"/>
      <point x="251.717267375" y="193.045209375"/>
      <point x="287.830536875" y="193.045209375" type="curve" smooth="yes"/>
      <point x="297.625477625" y="193.045209375"/>
      <point x="306.806105375" y="195.493531125"/>
      <point x="314.763729875" y="199.165958625" type="curve"/>
    </contour>
    <contour>
      <point x="449.551962125" y="156.319280625" type="line"/>
      <point x="403.645295375" y="156.319280625" type="line"/>
      <point x="403.645295375" y="327.703126125" type="line"/>
      <point x="449.551962125" y="327.703126125" type="line"/>
    </contour>
    <contour>
      <point x="535.856985125" y="156.319280625" type="line"/>
      <point x="489.950318375" y="156.319280625" type="line"/>
      <point x="489.950318375" y="327.703126125" type="line"/>
      <point x="535.856985125" y="327.703126125" type="line"/>
    </contour>
    <contour>
      <point x="439.146015875" y="257.927995875" type="line"/>
      <point x="502.802491625" y="257.927995875" type="line"/>
      <point x="502.802491625" y="219.977851125" type="line"/>
      <point x="439.146015875" y="219.977851125" type="line"/>
    </contour>
    <contour>
      <point x="364.600698875" y="345.024944625" type="move"/>
      <point x="377.845251875" y="345.024944625"/>
      <point x="386.184010625" y="355.325822625"/>
      <point x="386.184010625" y="367.099089375" type="curve" smooth="yes"/>
      <point x="386.184010625" y="378.379869375"/>
      <point x="377.845251875" y="389.172241875"/>
      <point x="364.600698875" y="389.172241875" type="curve" smooth="yes"/>
      <point x="351.356256125" y="389.172241875"/>
      <point x="343.508991875" y="378.379869375"/>
      <point x="343.508991875" y="367.099089375" type="curve" smooth="yes"/>
      <point x="343.508991875" y="355.325822625"/>
      <point x="351.356256125" y="345.024944625"/>
      <point x="364.600698875" y="345.024944625" type="curve"/>
    </contour>
  </outline>
</glyph>
<glyph name="commaaccent" format="1">
  <advance width="530"/>
  <outline>
    <contour>
      <point x="144.0" y="-196.0" type="line"/>
      <point x="198.145049432" y="-151.69950501"/>
      <point x="217.007622833" y="-105.963251838"/>
      <point x="195.0" y="-56.0" type="curve"/>
      <point x="321.0" y="-56.0" type="line"/>
      <point x="331.150634602" y="-118.506539394"/>
      <point x="266.338683515" y="-179.10530309"/>
      <point x="164.0" y="-210.0" type="curve"/>
    </contour>
  </outline>
</glyph>
<glyph name="five.osf" format="1">
  <advance width="630"/>
  <outline>
    <contour>
      <point x="322" y="-210" type="curve" smooth="yes"/>
      <point x="474" y="-210"/>
      <point x="570" y="-143"/>
      <point x="570" y="33" type="curve" smooth="yes"/>
      <point x="570" y="188"/>
      <point x="484" y="265"/>
      <point x="351" y="265" type="curve" smooth="yes"/>
      <point x="266" y="265"/>
      <point x="196" y="237"/>
      <point x="174" y="203" type="curve"/>
      <point x="205" y="386" type="line"/>
      <point x="521" y="386" type="line"/>
      <point x="516" y="550" type="line"/>
      <point x="163" y="550" type="line"/>
      <point x="93" y="158" type="line"/>
      <point x="175" y="89" type="line"/>
      <point x="204" y="133"/>
      <point x="269" y="146"/>
      <point x="338" y="146" type="curve" smooth="yes"/>
      <point x="452" y="146"/>
      <point x="508" y="95"/>
      <point x="509" y="35" type="curve" smooth="yes"/>
      <point x="510" y="-33"/>
      <point x="450" y="-83"/>
      <point x="323" y="-83" type="curve" smooth="yes"/>
      <point x="222" y="-83"/>
      <point x="148" y="-33"/>
      <point x="125" y="8" type="curve"/>
      <point x="60" y="-52" type="line"/>
      <point x="100" y="-153"/>
      <point x="201" y="-210"/>
    </contour>
  </outline>
</glyph>
<glyph name="nine.osf" format="1">
  <advance width="630"/>
  <outline>
    <contour>
      <point x="312" y="397" type="curve" smooth="yes"/>
      <point x="437" y="397"/>
      <point x="496" y="358"/>
      <point x="497" y="287" type="curve" smooth="yes"/>
      <point x="498" y="222"/>
      <point x="451" y="169"/>
      <point x="312" y="169" type="curve" smooth="yes"/>
      <point x="179" y="169"/>
      <point x="133" y="213"/>
      <point x="133" y="287" type="curve" smooth="yes"/>
      <point x="133" y="344"/>
      <point x="178" y="397"/>
    </contour>
    <contour>
      <point x="312" y="559" type="curve" smooth="yes"/>
      <point x="158" y="559"/>
      <point x="70" y="457"/>
      <point x="70" y="318" type="curve" smooth="yes"/>
      <point x="70" y="154"/>
      <point x="162" y="60"/>
      <point x="306" y="60" type="curve" smooth="yes"/>
      <point x="412" y="60"/>
      <point x="481" y="103"/>
      <point x="515" y="179" type="curve"/>
      <point x="560" y="251" type="line"/>
      <point x="560" y="458"/>
      <point x="471" y="559"/>
    </contour>
    <contour>
      <point x="500" y="164" type="move"/>
      <point x="498" y="-3"/>
      <point x="423" y="-73"/>
      <point x="312" y="-73" type="curve" smooth="yes"/>
      <point x="229" y="-73"/>
      <point x="170" y="-50"/>
      <point x="134" y="-11" type="curve"/>
      <point x="120" y="-140" type="line"/>
      <point x="157" y="-181"/>
      <point x="223" y="-210"/>
      <point x="319" y="-210" type="curve" smooth="yes"/>
      <point x="467" y="-210"/>
      <point x="560" y="-108"/>
      <point x="560" y="251" type="curve" smooth="yes"/>
    </contour>
  </outline>
</glyph>
<glyph name="vtf" format="1">
  <advance width="1200"/>
  <outline>
    <contour>
      <point x="94" y="0" type="line"/>
      <point x="187" y="0" type="line"/>
      <point x="299" y="92"/>
      <point x="425" y="246"/>
      <point x="425" y="381" type="curve" smooth="yes"/>
      <point x="425" y="399"/>
      <point x="419" y="426"/>
      <point x="419" y="443" type="curve" smooth="yes"/>
      <point x="419" y="484"/>
      <point x="424" y="525"/>
      <point x="404" y="550" type="curve"/>
      <point x="281" y="550" type="line"/>
      <point x="308" y="519"/>
      <point x="317" y="483"/>
      <point x="317" y="442" type="curve" smooth="yes"/>
      <point x="317" y="313"/>
      <point x="246" y="195"/>
      <point x="136" y="106" type="curve"/>
      <point x="148" y="106" type="line"/>
      <point x="84" y="550" type="line"/>
      <point x="16" y="550" type="line"/>
    </contour>
    <contour>
      <point x="959" y="528" type="line"/>
      <point x="959" y="601"/>
      <point x="1008" y="642"/>
      <point x="1074" y="642" type="curve" smooth="yes"/>
      <point x="1114" y="642"/>
      <point x="1138" y="637"/>
      <point x="1150" y="628" type="curve"/>
      <point x="1184" y="766" type="line"/>
      <point x="1169" y="777"/>
      <point x="1140" y="788"/>
      <point x="1098" y="788" type="curve" smooth="yes"/>
      <point x="1001" y="788"/>
      <point x="893" y="712"/>
      <point x="893" y="528" type="curve"/>
    </contour>
    <contour>
      <point x="704" y="109" type="curve" smooth="yes"/>
      <point x="624" y="111"/>
      <point x="587" y="136"/>
      <point x="604" y="217" type="curve" smooth="yes"/>
      <point x="643" y="400" type="line"/>
      <point x="877" y="400" type="line"/>
      <point x="846" y="255" type="line"/>
      <point x="819" y="143"/>
      <point x="772" y="109"/>
    </contour>
    <contour>
      <point x="909" y="255" type="curve"/>
      <point x="940" y="400" type="line"/>
      <point x="1063" y="400" type="line"/>
      <point x="1097" y="550" type="line"/>
      <point x="675" y="550" type="line"/>
      <point x="702" y="670" type="line"/>
      <point x="629" y="670" type="line"/>
      <point x="612" y="550" type="line"/>
      <point x="374" y="550" type="line"/>
      <point x="340" y="400" type="line"/>
      <point x="580" y="400" type="line"/>
      <point x="533" y="178" type="line" smooth="yes"/>
      <point x="500" y="23"/>
      <point x="565" y="-30"/>
      <point x="679" y="-30" type="curve" smooth="yes"/>
      <point x="785" y="-30"/>
      <point x="865" y="48"/>
    </contour>
  </outline>
</glyph>
